<mxfile host="www.draw.io" modified="2020-01-19T15:46:21.631Z" agent="Mozilla/5.0 (X11; Linux x86_64) AppleWebKit/537.36 (KHTML, like Gecko) Chrome/78.0.3904.87 Safari/537.36" etag="KFydeNO4oXHdn71AB1u6" version="12.5.5" type="github" pages="4">
  <diagram id="_37ZfE2wD_X3_YTgAkfA" name="Top">
    <mxGraphModel dx="1359" dy="894" grid="1" gridSize="10" guides="1" tooltips="1" connect="1" arrows="1" fold="1" page="1" pageScale="1" pageWidth="827" pageHeight="1169" math="0" shadow="0">
      <root>
        <mxCell id="0"/>
        <mxCell id="1" parent="0"/>
      </root>
    </mxGraphModel>
  </diagram>
  <diagram id="psCmlDZE3tVd538Jrg62" name="FeatureExtructor">
    <mxGraphModel dx="3092" dy="1490" grid="1" gridSize="10" guides="1" tooltips="1" connect="1" arrows="1" fold="1" page="1" pageScale="1" pageWidth="827" pageHeight="1169" math="0" shadow="0">
      <root>
        <mxCell id="KRiQTR37dp_EB_8YDpK1-0"/>
        <mxCell id="KRiQTR37dp_EB_8YDpK1-1" parent="KRiQTR37dp_EB_8YDpK1-0"/>
        <mxCell id="KRiQTR37dp_EB_8YDpK1-2" value="Input @ timestamp = t" style="text;html=1;strokeColor=none;fillColor=none;align=center;verticalAlign=middle;whiteSpace=wrap;rounded=0;" parent="KRiQTR37dp_EB_8YDpK1-1" vertex="1">
          <mxGeometry x="30" y="65" width="130" height="20" as="geometry"/>
        </mxCell>
        <mxCell id="KRiQTR37dp_EB_8YDpK1-3" value="Image" style="shape=note;whiteSpace=wrap;html=1;backgroundOutline=1;darkOpacity=0.05;" parent="KRiQTR37dp_EB_8YDpK1-1" vertex="1">
          <mxGeometry x="170" y="30" width="130" height="40" as="geometry"/>
        </mxCell>
        <mxCell id="KRiQTR37dp_EB_8YDpK1-4" value="" style="endArrow=none;dashed=1;html=1;" parent="KRiQTR37dp_EB_8YDpK1-1" edge="1">
          <mxGeometry width="50" height="50" relative="1" as="geometry">
            <mxPoint x="20" y="90" as="sourcePoint"/>
            <mxPoint x="620" y="90" as="targetPoint"/>
          </mxGeometry>
        </mxCell>
        <mxCell id="KRiQTR37dp_EB_8YDpK1-5" value="Calculate a crvature" style="rounded=1;whiteSpace=wrap;html=1;" parent="KRiQTR37dp_EB_8YDpK1-1" vertex="1">
          <mxGeometry x="120" y="130" width="230" height="30" as="geometry"/>
        </mxCell>
        <mxCell id="KRiQTR37dp_EB_8YDpK1-6" value="Resize image" style="rounded=1;whiteSpace=wrap;html=1;" parent="KRiQTR37dp_EB_8YDpK1-1" vertex="1">
          <mxGeometry x="880" y="124" width="230" height="30" as="geometry"/>
        </mxCell>
        <mxCell id="KRiQTR37dp_EB_8YDpK1-7" value="Extruct belif feature points" style="rounded=1;whiteSpace=wrap;html=1;" parent="KRiQTR37dp_EB_8YDpK1-1" vertex="1">
          <mxGeometry x="880" y="184" width="230" height="30" as="geometry"/>
        </mxCell>
        <mxCell id="KRiQTR37dp_EB_8YDpK1-8" value="Extruct belif feature points" style="rounded=1;whiteSpace=wrap;html=1;" parent="KRiQTR37dp_EB_8YDpK1-1" vertex="1">
          <mxGeometry x="880" y="244" width="230" height="30" as="geometry"/>
        </mxCell>
        <mxCell id="KRiQTR37dp_EB_8YDpK1-9" value="Detect local extrima on curvature image" style="rounded=1;whiteSpace=wrap;html=1;" parent="KRiQTR37dp_EB_8YDpK1-1" vertex="1">
          <mxGeometry x="84" y="339" width="230" height="30" as="geometry"/>
        </mxCell>
        <mxCell id="KRiQTR37dp_EB_8YDpK1-10" value="Initialie?" style="text;html=1;resizable=0;points=[];autosize=1;align=left;verticalAlign=top;spacingTop=-4;" parent="KRiQTR37dp_EB_8YDpK1-1" vertex="1">
          <mxGeometry x="11" y="274" width="60" height="20" as="geometry"/>
        </mxCell>
        <mxCell id="KRiQTR37dp_EB_8YDpK1-11" value="Get the dominant flow between &lt;br&gt;image_{t-1} and image_{t}" style="rounded=1;whiteSpace=wrap;html=1;" parent="KRiQTR37dp_EB_8YDpK1-1" vertex="1">
          <mxGeometry x="570" y="300" width="230" height="30" as="geometry"/>
        </mxCell>
        <mxCell id="KRiQTR37dp_EB_8YDpK1-13" value="Estimate feature points of image_{t}&lt;br&gt;and use as initial values of feature point tracking" style="rounded=1;whiteSpace=wrap;html=1;" parent="KRiQTR37dp_EB_8YDpK1-1" vertex="1">
          <mxGeometry x="410" y="390" width="350" height="30" as="geometry"/>
        </mxCell>
        <mxCell id="KRiQTR37dp_EB_8YDpK1-14" value="Track local extrema" style="rounded=1;whiteSpace=wrap;html=1;" parent="KRiQTR37dp_EB_8YDpK1-1" vertex="1">
          <mxGeometry x="413" y="490" width="350" height="30" as="geometry"/>
        </mxCell>
        <mxCell id="KRiQTR37dp_EB_8YDpK1-15" value="" style="endArrow=none;dashed=1;html=1;" parent="KRiQTR37dp_EB_8YDpK1-1" edge="1">
          <mxGeometry width="50" height="50" relative="1" as="geometry">
            <mxPoint x="20" y="600" as="sourcePoint"/>
            <mxPoint x="620" y="600" as="targetPoint"/>
          </mxGeometry>
        </mxCell>
        <mxCell id="KRiQTR37dp_EB_8YDpK1-18" value="Output" style="text;html=1;strokeColor=none;fillColor=none;align=center;verticalAlign=middle;whiteSpace=wrap;rounded=0;" parent="KRiQTR37dp_EB_8YDpK1-1" vertex="1">
          <mxGeometry x="21" y="620" width="40" height="20" as="geometry"/>
        </mxCell>
        <mxCell id="KRiQTR37dp_EB_8YDpK1-19" value="&lt;span style=&quot;white-space: normal&quot;&gt;feature points from image_{t-1}&lt;/span&gt;" style="shape=note;whiteSpace=wrap;html=1;backgroundOutline=1;darkOpacity=0.05;" parent="KRiQTR37dp_EB_8YDpK1-1" vertex="1">
          <mxGeometry x="360" y="30" width="270" height="40" as="geometry"/>
        </mxCell>
        <mxCell id="KRiQTR37dp_EB_8YDpK1-21" value="&lt;span style=&quot;white-space: normal&quot;&gt;feature points from image_{t}&lt;/span&gt;" style="shape=note;whiteSpace=wrap;html=1;backgroundOutline=1;darkOpacity=0.05;" parent="KRiQTR37dp_EB_8YDpK1-1" vertex="1">
          <mxGeometry x="278" y="670" width="270" height="40" as="geometry"/>
        </mxCell>
        <mxCell id="KRiQTR37dp_EB_8YDpK1-26" value="&lt;span style=&quot;white-space: normal&quot;&gt;？？&lt;br&gt;トラッキングしている途中で、特徴点のない領域が生じてくると思うが、そこに特徴点を見つけるためにはどうしたらよいか？&lt;br&gt;&lt;br&gt;OrbSLAMのような画像を領域に分割して、均等に特徴点が存在するように検出し直す方法など必要か？&lt;br&gt;&lt;br&gt;トラッキングに失敗する可能性もあるので、&lt;br&gt;特徴点密度をカンガル筆王あり・&lt;br&gt;&lt;/span&gt;" style="rounded=0;whiteSpace=wrap;html=1;" parent="KRiQTR37dp_EB_8YDpK1-1" vertex="1">
          <mxGeometry x="960" y="374" width="295" height="120" as="geometry"/>
        </mxCell>
        <mxCell id="KRiQTR37dp_EB_8YDpK1-31" value="&lt;span style=&quot;white-space: normal&quot;&gt;？？&lt;br&gt;曲率画像の画像の極値探索に利用する初期値は&lt;br&gt;どうやって決めるのか？&lt;br&gt;- ランダムサンプル？&lt;br&gt;&lt;/span&gt;" style="rounded=0;whiteSpace=wrap;html=1;" parent="KRiQTR37dp_EB_8YDpK1-1" vertex="1">
          <mxGeometry x="-320.1666259765625" y="280" width="295" height="60" as="geometry"/>
        </mxCell>
      </root>
    </mxGraphModel>
  </diagram>
  <diagram id="H0uU_kFGj13HSg9YGo_l" name="Coordinats">
    <mxGraphModel dx="2768" dy="1277" grid="1" gridSize="10" guides="1" tooltips="1" connect="1" arrows="1" fold="1" page="1" pageScale="1" pageWidth="827" pageHeight="1169" math="1" shadow="0">
      <root>
        <mxCell id="0IS2U3QtcljcEeAQ51mi-0"/>
        <mxCell id="0IS2U3QtcljcEeAQ51mi-1" parent="0IS2U3QtcljcEeAQ51mi-0"/>
        <mxCell id="0IS2U3QtcljcEeAQ51mi-3" value="" style="shape=image;verticalLabelPosition=bottom;labelBackgroundColor=#ffffff;verticalAlign=top;aspect=fixed;imageAspect=0;image=https://docs.opencv.org/3.4.9/pinhole_camera_model.png;" parent="0IS2U3QtcljcEeAQ51mi-1" vertex="1">
          <mxGeometry x="10" y="200" width="521" height="367" as="geometry"/>
        </mxCell>
        <mxCell id="0IS2U3QtcljcEeAQ51mi-4" value="OpenCVのCalib3dモジュールにおける座標系について" style="text;html=1;resizable=0;points=[];autosize=1;align=left;verticalAlign=top;spacingTop=-4;" parent="0IS2U3QtcljcEeAQ51mi-1" vertex="1">
          <mxGeometry x="20" y="20" width="310" height="20" as="geometry"/>
        </mxCell>
        <mxCell id="0IS2U3QtcljcEeAQ51mi-5" value="World座標系：おそらく、Y軸が下を示す座標系になっている&lt;br&gt;特徴点の三角測量結果が同じになっていればOK？&lt;br&gt;としたとき、SLAMシステムで利用する座標系を定めていたほうが良いと思われる" style="text;html=1;resizable=0;points=[];autosize=1;align=left;verticalAlign=top;spacingTop=-4;" parent="0IS2U3QtcljcEeAQ51mi-1" vertex="1">
          <mxGeometry x="20" y="40" width="460" height="40" as="geometry"/>
        </mxCell>
        <mxCell id="0IS2U3QtcljcEeAQ51mi-18" value="" style="group" parent="0IS2U3QtcljcEeAQ51mi-1" vertex="1" connectable="0">
          <mxGeometry x="170" y="730" width="520" height="296" as="geometry"/>
        </mxCell>
        <mxCell id="0IS2U3QtcljcEeAQ51mi-9" value="" style="shape=image;verticalLabelPosition=bottom;labelBackgroundColor=#ffffff;verticalAlign=top;aspect=fixed;imageAspect=0;image=data:image/png,iVBORw0KGgoAAAANSUhEUgAAAggAAAEoCAYAAAA9uAnIAAAgAElEQVR4XuydB1QVRxfH/0vvVYogIIqg2GLXKKJYosbuZ4wlibFr1FiisVfE3oldY4kaNRo11sTee8EKKKiAAopSpfO+MwuKCI9X2Nd4d8/xfIWZO3d+s7vv7swtnI+Pj0gkyoGRoS7sy1hBR1cHdBEBIkAEiAARIALaRyAnh0Pd+l/C0tIGXN26dUVOjtawtDRDVmY2AJH2EaEZEwEiQASIABEgAuB0dKCry8Hcwh7cVvvfRcf89iM7ixkHdBEBIkAEiAARIALaTsDE1Axce782IhNrXW1nQfMnAkSACBABIqBWBLJzcpCQmIy01Ez+q97C3BTGxoZF6piZlY3EpGSkp2VBX18HlhZmMDDQL7JtekYmEpNSkJmRDQMDPVhZmkJPT69AW+Z6wP3hsln0d91dagWFlCECpZ1AdkY64pKyYGdrCk5VkxWJkJFtADdnM0RGvUZC/HuYWlvAUJrvBVEOskUcdHVUpr2qqNG4REApBFLep8HV1R3u7q78j7dIJML796m4eeMmdHUB3U/8BZkRUa16TTg62EFXVxc5OTlISXmPS5cuwcLcBByX+5wyGYkJSZhc3xOVLAxgpAOkZItw800Kfgt6DitL849zY225b3v8T5SelqyUCdMgRECbCORkZaNcww6oZfQIB86FQQ/ZcK7qAw+TOFx6VRYz+9fAyKnLYWYgpWOwKAfJ6Ybw8fNBWUtDRIffx437z6GjJ2X/z+HnZCPWrSc2d3uLwXPuwX/hQBxcOBXBKUV/oeS/OTJRuXknGIdcwLWoROgXYyNkZ4lQxa8DvCzzdMyKxeH9F5BjWPBrRZvuC5orEZBEID09A66u5eHq5sL/2H96iUTA9WvXeSOBXSkpqfiiVi1YWlrwBsCnV3Z2Dq5euQJDw9ydBFFaKubXKQc7LrOgChyHBykizAqKhpmZyUdjgvumezdRelqSJH3p70SACMhKICcbBhU6YMHwWvhp1GyI0kXoNy0AKedXYV+QIX7sVAGr/g5GwyoO/C6CKDMJd+48ho5B0Z/w2Zw5RkydBOOoe3gcnQxLLhZb/roAHUNTeFbxgkFOCu4/CIWuPgeRvhU8PdyA93G4H/ICujp6cPX0go2ZId5EhOJlkh68K1dATtmGGFQjDD9NPYn/De2MC3/8CV13bzhamAKZyXgYHIqcHBHs3LxR1toQSW+iEBoRie6T5sLl2TWcu/sQt++HAbrGqFSlMoxEyXj4+CmQt7OQlQF0mDQf9d6dx7knKRBlx+Hy1edwregKI90sPLr1AOVr1ISJPvAyPATRCelwdK8ERytTZCW/QRLMYWPM4WnwY6Rm5yA7x6DIcWRdGmpPBNSZQFaWCPUb1EN2dmHfQLYb8C4+AaHBj/kjhByRDurUqYUHDx7C2Nj447TCw8Ph59ccYWHP8O7tawAcmphko3859gEgQsT7dLiYGOJJcio8zIwh0tHFlIdJiNYz4ncc+B2E7v/rKkpPJQNBnW8W0k1zCWTBBAuWzsaOyb/gmlE9rBjXBIt+9UeSfQvMGVMPgwL+RY+mlVC9fkMYRl/D1GX7YGCki+ysTPBBRTo6MNLXBUTZMPPoiJkDqmHgz3NgZqwL9hLhoI+OP09GjZxwxBq5o2z0AUzZ+ADDZ02F+ZtQZNtVgm7Q75j+RyZWbhqOpzdu4c6VS/D6Zihc4u7hlYkn6hlew6BJ1zBzw8/YO2EWfAPmwebRFWS61UPG2bVYciwYdVp3RxVHC9Su54HlQ8ei8ZzF8HwbiqDH97H/6B20Gz0VNdMfIda8Muyf7cf8/fdhoMchK5NDx8nzUePJDmy99g6ZSTGwqtsNP37pgOtBj7F3xwF06dUdBuaOqOeZhYkjt6LfmtkwfngTltXrw+DlfURw5WD18jQmb7yELqMnFzmO5t4hpDkRKEzA0toGLi7OhXYEPrRkuwpXr1yHuZkJ3CtWhKmpCUJCQuHpWemjsAsXLqFJky+RmZGFoKAgsFMGf1cO5XTS+Tbr497DJisdOSbm6G7OdvQ4BGcbYdErDjo6OrkGwv/+10WU9j6R1ogIEAEFEMjJBmoM8Me3WXvxT3pjNMq4hoA9l2Hr1JQ3EIaNWwqTCq0wZ4A3Fk9fjDcifYhysuHyzXyM9zFG2v2DGPHbSRjriWD1RR9M/dYGw8YHwliP4wOS04zcEDi7D+YMmoynunXx+7rOmDL/P8wZXR/Thi9Cjmd7zBleDf2G7cPKjT9i6fhpiNKviN9m98bsAZPxrM4g/ohh0KSrmLVhFP6aMAvNAvzx1H8ELteYgLnV72HQoovoOXYMvnQxg6GpAfaO/wkOvyyBzuE12Hn3JXIMy2L5gnHgUlORLQJE8bcwyX83RAa6yMrUQecpC+Br/BoxSVmIu30IF3Xqo7NzLGZsPA492GLG/F9gJsqBqcl7zB2xCJ2WzMCtGaOQ8V0gmj1egOUxDbDkayP0XXwBG5aPL3IcBSwdiSQCKiNgaWUDR0d7JCQk4PnziAJ6VK9elf/xvnnzNszNTFHe3R2GhgYID38Gd/fyH9tev34T9erV4Y8o7t9/wO8KLCybhjKiNL7Nw0wRAl++wxhnG3jwJ34cInWMMCvWFDo6eTsI/+vWRZRKBoLKbgQauJQTEIkQn+yC9et/5s/q182dhAcx6TB18OENhP5DAzHvtwD8vXACzj1NhLWNGdizmp6YgHdpInD6hrC3NgYzB/TNvbDEfxBOblyC7Vci4OHugJAXWZgVOAG3F03AKYd+WPptNoaPPYXZKwfj7xkTkfzlKAypF4VBY69j5aYfseSXqXiZ5Yjpy8bj7vKJ2KnXE1vEGAgXqo7DglqPMPxADn7r74kBI9diyNoFeDZrOMxHLoL77e2YsfsuzKycMGPZJLzYMAPLz76ElYU59A10+VMGtoPQZepCVDwzBYsvpUKXy0aV1j+io3Mspq09ArsWozGn6hV8HxCKxRuH4fcxHwyEn5Ha6ze0eroQiyLrYnknU/SddRxz10wpcpxSfhfR9LSMAKejy//Yf+5T8AFDWlo6wsLCYWSoDyNjEzg5lcWLFxFwdXX5SOru3SDUrFkD794l4HVsDG8g9DBOQCuTXAPhomEZ+Oim49B7Edoh1w9xW6IJzmdb8gYCMyy4rl07i1JTErQMP02XCCiPgCgrA72nLUSt5MsYu/gAdPQ4mJb1RcCYehj/VzIWf+eNnKws5Lx/gUmjF+G9iUGRyjFfJQv3BhjeryOcLPTw7N55rFr3N/Rc6+Hnn76FZWYMls8PxIvkNJSr2RqDe7cGXj/CsiW/40VieQRu+hGLx07BmywdmJerixGD/wcHEw7Prv2FgI0v4L/+5wI7CB8MhAELz6HrkJ/QqqojMlPjsGXmbDywrI8pY3rCMi0Ys6aug8i1DoYP/RbOFjq4sH05dt54BX0ddsSgi27Tcw2ERRdToIMceLfph07OsZi67gj09Wzxy5TRcDHXQ9LbUCzz34ney2fg1vSfkdq7oIEwaMYfsClfu8hxlLeaNBIRUDyBtLQMlHNxLuBT8GFUtv0fERHJH0OycwPmpOjlVQn6+vrguIIOyzk52QgNfQp9PebXJIJZegoWOyQAbGtTVw/IzgJ09YHsTCRAH8NfWcLEzIT3icphRwxdOncUvU+hIwbFLzmNoM0EsjKzkMM8BvR1cx++nBxkZuVAX5dDZvYHL2UO+gZ6KC4mgcUmZ2XlIEfE3BM46LEHXyRCJnNY4AA9fV3oINf6Z+3YCyR3zBxkZORAT1+P/7IvKEcHenocHxOtq6+LnMxscKxdThYyczgY6OuARWRk5Yj4rxAWcsV+6Jn+vBcE7yORrxcLs9LT/RDaIAKbu0hHj58ru5jjFTuKMNDThQjs79m5LyOO6aGD7Mxs6DCZWVnI1tGFPsfCMQGDYsfR5ruL5l7aCLCdg8zMLNjZ28PExDjXHyAvVDE6JhYZ6WnQz8tbwLfNyuZ3EZiR8KEt+8/IyJfgOBF0dXLfKuy94JSZhF+t42HMZfPvDvaOiM7Wx+J4ayQamn4cJ4flQejUsb0ohQyE0nZ/0XyIABEgAkRAwwkwI4EZ5B/yIKSnp/P5D9guwqcX80fKysiCvoH+xzwIrK2+vt7HH/wP7flji4wMVNNLgSWXjbgcPTzKMYWOQcGdS97Q6NixvSg5KV7DMZL6RIAIEAEiQASIgFAEeAOha5fOord8jCRdRIAIEAEiQASIABHIzbrIdevWRfQmNpp4EAEiQASIABEgAkSAJ8AbCL6+vqKrV68SEiJABIgAESACRIAIfCTA+fj4iFjGJbqIABEgAkSACBABIvCBAOfj01R08SIZCHRLEAEiQASIABHQXgIsFqJg5bU8A+Gy9jKhmRMBIkAEiAAR0GoChY0DhoM3EC5dIgNBq+8NmjwRIAJEgAgQgc8I5BkIVwgMESACRIAIEAEiQAQ+EuCaNvUVXbpEBgLdE0SACBABIkAEiEA+gTwDgcIc6aYgAkSACBABIkAEChgIzUSXLpGBQDcFESACRIAIEAEi8JmBcPnyNWJCBIgAESACRIAIEIGPBLimTZuJLl++TkiIABEgAkSACBABjSZQdLiivFPiDYQrV8hAkBcg9SMCRIAIEAEiUBoJcE2bNicDoTSuLM2JCBABIkAEiEAJCHC+vs1Fly/fKIEI6koEiAARIAJEgAiUNgK8gXDlys3SNi+aDxEgAkSACBABIlACApyvrx8ZCCUASF2JABEgAtpCoFWr5vDy8kRg4FptmbJWz5M3EK5evaXVEGjyRIAIEAEiQASKI1C5sgceP36iVZA4X98WZCBo1ZLTZIkAESACREAWAs2afYlvvumGYcPGytKthG2FDVmURxmuWTMyEOQBR32IABEgAkSACJRmAnkGwu3SPEeaGxEgAkRAoQTc3Mrh+fNIhY6hLOEtWjRFYmIirl+/o6whaRw1JZBnINCNoKbrQ2oRASKgAQQmTx6DW7fu4OjRUxqgbfEq9ujRGTExsThz5pJGzaV8+XJYvnwhOnXqqXC93d1d4OzsiAsXSneSQd4H4fr1uwoHSgMQASJABIhAyQn07dsL9+/fx40bQSUWZm1tiXfvEkosR10EuLu7Ijz8hczq9OvXB3FxcThw4KhUfb/6qjns7Gzxxx9/SdVeUxvlGQglv9E0FQDpTQSIABHQJAKjRw8Dx+VgyZI1JVZ79epFWLIkEKGhz0osS5MF1KlTHRkZGbh3L1iTpyG47lyzZi1F16+TgSA4WRJIBIgAEVAjAps3r8LQoWORmpqqdK2cncsiKuqV0selAUtGIM9AuFcyKdSbCBABIkAEiiTg4GCHmJjXakEnMHA+VqxYh5CQp0rV58iRPejR40ckJSWXaNzx44djwYLAEslQRmeO4/hhRCIWqsj/t7z/zP3/NeXifH1bim7eJANBUxaM9CQCRECzCOzfvx2dO/fWLKUF1pY59EVFRZdY6pAhP2DNmi0F5Njb2yI2Nq7EsoUUMHv2RF7c1KlzhRSrdFm8D8LNmw+UPjANSASIABHQBgKmpsZISVH+tn5pZrtkyWxEREQiKuolHBzssXLlRrWbrqmpCVJS3qudXrIolGcgPJSlD7UlAkSACBABIqASAps2rcDQob8gPT1DJeNr06Bcs2ataAdBm1ac5koEiAAR0DACv/46HP/88y8ePgxRueaenu6YNu1X9OkzROW6KFoBrnnz1qIbN+iIQdGgST4RIAJEQJkE2Nl8Wlo6EhOLdwysXbsasrJyEBSkvjvJLVv64P79x4iOVg9nz0qVygsWGmpmZoJZsyZgzJhpyrw9pBqLa978K9pBkAoVNSICRIAIyEbAzs4Gr1+/la2TQK1HjhyEx49D8O+/Z4qV2L59C1hbW2Hbtr0Cjaw6MWPGDMTvv+/WuORPffp0wx9/qB//PANBfS1H1d1qNDIRIAJEoGQEduxYg+XLV+PqVcpWWzKS0vXu3bsTtm8/IF1jaiWRAOfnx3YQyECQSIoaEAEiQARkJGBoaIj09HQZewGDB/fB2rV/yNSvX78eCAt7jjNnrsjUjxpLT+BDWoO8NAfSd9TQllyzZq1Ft28/1lD1SW0iQASIQOkiYGxsiIkTR2LatIX8xDZsWIoZMxYgMrL4TISNGtVBeHgEoqNjSwzEwaEMHB3tcPfuoxLLIgGaSyDPQKD805q7hKQ5ESACpZmAj0993LwZhPfv05Q2zcaN62H48H7o2XOo0sakgdSPAOfr20p0926o+mlGGhEBIkAEiECpJTB06Pd4+jQc//57vtTOUdMnlmcgPNH0eZD+RIAIEAEioEEEataszGcafPJE9vLMQk3Tw8MVM2aMx5Ej/2LHjoNCiS01crimTVuK7t0LKzUTookQASJABIgAEZCWQOXKHmje/EusXr1V2i5a045r1MhX9PhxpNZMmCZKBIgAESACmknA3/8XTJmyqEjl2W6AnZ01Ll+mkFKhVpcMBKFIkhwiQASIABFQKIHAQH8cPXoahw+fLDROo0a1UbNmVaxZs02hOmiTcK5Ro2ai4GDaQdCmRae5EgEioL0EvL0r4uHDpxoJgKU4ZqmjY2LeqLX+uro6vH7Z2Tlqrack5biffx4v2rbtb0nt6O9EgAgQASKgIgLs6zg0NAxv3sSXWIPAwNlYvnwDQkOfFyurdesmMDQ0wj//nCjxmLIIWL06ANu27cGlS7dl6aY2bVl67e7d28LZuSwmTy76OERtlJWgCDd69ATR1q37NEVf0pMIEAEioHUE/P3HYdu2fQgOVs6X///+1w7m5saIjIzGf/9dVCpvNzcnPH/+stCYLBFUSMhTxMXJZyQtXjwFY8f6K3wu7do1g6mpKfbsOazwsRQ9ADdu3BTRpk17FD0OyScCRIAIEAENIfDVV41x/Hhhw2Dw4B7YufMQEhNTlD6TYcP64OTJiwgODpdrbB+fWjh/XjN3JeSasACduAkTpos2bNglgCgSQQSIgCoIrFgxAyNHzlDF0DSmGhPQ19dDxYouePxYvh/UoqYWEDAOt2/fw549x9R45qSaUAS4SZNmidat2yGUPJJDBIiAkgmYmJjg/fv3Sh6VhlN3Al26tIKnpzvmz18nmKoslLBWrarYs+eoYDJJkHIJfP11Exw/fgVZWVkSB+amTPEXrV27XWJDakAEiAARKO0ExG2tq+O8mQFw8uRl3qtf2y9WZVFbKiyWdK2nTPkJmzfv5f1LJF3ctGkBotWrZSsrKkko/Z0IEAEioGkEypSxwuDBPTFnzmq1V11HRweLFk3C/PmrERMThwoVnDFp0ggMGDBB7XVXtoJdu36FGzfu4sULyT+IH3Tr3v1rmJgYYcuWvQpRNzBwFiZPXoCEBPU27rjJk2eL1q37UyEQSCgRIAJEQJsITJw4EE+ePMOePf8VmPbq1f44ePAEjh49o004lDZXe3trTJv2M4YPL+yLM2ZMP+zefQiRkSUvgy3UhNq398OhQ6eEEqcwOdyMGfNEq1bRDoLCCJNgIkAEtIaAuAQ5NjaW6NKlNTZuVJ+IsXbtfHH58i28e5ekFuvj4GADa2srPH4sX20gV1dHGBsbITj4mcT59O3bGbt2HUVqarrEtvI0YA6ia9fOwYQJ8xEb+1YeEWrRh5sxYz4ZCGqxFKQEESACREB5BEaN+h5nzlzGnTuhcg3KjJ74+ETk5Ijk6s86ubo6YN68iejVaxSaN6+NL76ojqVLt8gkj+mRlJSCzMwszJ37CyZOlJycaMKEgZg3b71M48jamM3n9OlbsnZTq/bczJkLyEBQqyUhZYgAESAC6k9g6dJJmDXrN7x7l6BSZZcunQwWqv/gwROV6lEaBycDoTSuKs2JCBABIkAEiEAJCXAzZ84XrV5NeRBKyJG6EwEiQATUkoC3dyW4uZXF0aPn1FK/z5WikEX1WSZu1qyFolWrKA+C+iwJaUIEiAAREI6Ak5M9nJ0dcP36PeGEKkCSh0c59OzZHrNnr0HZsmX4vAYvX6p31UYFYFArkXkGAu0gqNWqkDJEgAgQAQ0hMHfuKEycuEwQbXv2bIedO4+gb99O0NPTx4YNfwkiV92EjB37A1JSUrBmjXrPj5s1axEdMajb3UP6EAEioHACLi4OYJkTN2ygarbywt60aR527drPp+5Vh2vy5IGYM0f66AQDAz1YWVlodCiiIrnnGQg7FTkGySYCRIAIqB0Bd3cn1KtXDbt3/6t2un2q0MCBXXD58n3cvy9fOKK4yenocOjcuSn27Turkvk3b14X9epVx4IFvws2fps29XHs2DWp5dWoUQnDh3+PQYOmiu2jr6+LgIDRmDdvHeLiEqWWXRoacjNnLhStXUuZFEvDYtIciAARKH0ELC3NYWZmhKio14JOTk9PD0OHdsfKlar5QDQ2Nkbt2p64ePGuoPOSVZiBgT4yMjKL6cbhf/9rjn37ziAnJ0cq8ZMnD8HixZuRlpYmVXt1bcTvIKxZQwaCui4Q6UUEiAAR0BYCvr518MUXVbB8ufDZfb283NGnT3tMnbpS4TgrVnRFeHik1AaFwhWScwBu9uzFZCDICY+6EQEiQASIgDAEvLxcMXjwt9i4cS8ePHgqk9AvvqjMZ1KkZEkyYZPYOM9A2CWxITUgAkSACBAB9SCgq6sLNzcHhIW9VA+FVKxFw4ZfICkpmQwEgdchz0DYLbBYEkcEiAARIAKMAEtSxGoWJCSkCAbE17cmqlf3RmCgavwHBJsICVJrAtzs2UtEa9eSgaDWq0TKEQEioLEERo7siUuXbuHGjWCNnYO6KM6qNbIESu/fa7bzn7rwlKQHN2vWYtG6depTglSSwvR3IkAEiAARKEzAzs4Kr1/Hl2o0HTo0g729Le+nQJfiCXD+/mwHgQwExaOmEYgAESACiiMweXJ/LFu2AykpqYobRIxkd/eyCA9/pfRxaUDFEuD8/ZeSgaBYxhorffr0wZg5c63S9GdOV8+fxyhtPBqICBABYQiwdwUrBnXt2iNhBJIUdO3qh6dPI3D3rrAJsmRByxsI69apdz5oWSZEbYUh0KNHK+jo6GLnzmO8QMnJREo2bs2aldCtWytMm7aqZIKod4kJWFtboEYNT5w9e6PEskiAZhNg0RJLlozDlCkrkZQknJOlZlNRjvbNm9dDZGQMQkNfKGfAIkbJMxDoPEdlK6CmAzdsWBWvXyfg6dNIXsNy5RzQv39HzJyZn+fcwsIEiYnv1XQGuWo1bFgFbds2xfTpytsJUWsgUijn4GCLLl1aYP36v5CdLV3mOCnEUhM1JeDtXQEPH4YVqZ2urg5at66Po0fVo9aCvAidncsgKkr6ypDsGcjJyeZ9OtzcHPH8ebS8Q2t0Pz6KYcOGvzV6EqS8bASsrMygp6eLN28SZOv4SetatTzx888/oG/fyXLLkKdjp05fgqWe3br1uDzd+TKyr15J/6KQaxAN7dSxY1NERETh9m3ZktRo6HRJ7TwCU6YMgr//ugI8RKLc/8kiBlRxmZoaISVFuEiFpUvH4eDBUzh9+qZU0xkzpjdCQl7g5s2HCAychp49xyIjI0uqvqWpEefvv0y0fj1VMytNiyppLj16NIednS08PSti6dJtCA9Xz2QrbdrUwbFj+Q80C3H67beJ+OWXhXj7NvnjNMuUscT8+WMwfPgcpKZmFDv9lSsnYMSIeZIQaeXfmzSpiYSEeNy791wr50+TVg8CLVrURc+eHTBgwHT1UEiLtSADQYsX38bGEomJKcjKUj/LeO7cn2FpaYZhw+Z8XCGO42BmZlLoLFRHRwfW1pZ4+zYeorxPn9Wrp2DoUP9iV/f779uCGR1r19IOmqoeA3bGza7s7GxVqaCW41at6oYHD7TTUNPX1wN7ptPTizf25V24xo290bfvNxg4cIa8IrSmHzdnznLaQdCa5dacidraWiApKVVClTXx87G3t0JsbPEx4awNexFFR7/lBc2aNQT//HMK16+HFCmYnUvOnj2c36n4fLuRndUGBIzAypV/8o5FpfGytDTFzJnDMGrUQsGm5+LigG+/bYWFC4UvziOYkkoWZGxsiMDASTh+/Bx27z6p5NG1Y7iyZW3x6lWcdky2BLPMMxDoC6oEDKmrAAS++MIDd+48EUCSeBEsUqJqVXfs2PFvkY0knXuyL5sqVcojKKiwnj/80AZOTg5YsmSnwr58FApHSuFly9rg1atcg4ouIqAIAuw5zczMFus4qYgxS5PMGjXcERQULsiUeANhw4b9gggjIZpBwNDQAN7e7CYKldlLnX0pf+7Zzrb+2Q/Hy5fyW+TTpg3E5s378eKFsDXvP10R9uOur6/Pz1uWq0aNiujatQVmzCjoyPWpDLYTwS5p68XLMj61VQwBIyMDzJ07EqNHL1LMAGoqVdUOiJKwNGlSCzk5WWCnTlev3pPUnP7+GYHZs4di6tTVUnOxs7NGq1b1ivxw4vz9l4s2bjwgtTBqqJkE+vZtj/DwKJw9exvM94B59bIzOFk8c3/8MffMftWqgjtOJibG2L59Lrp0GSUWzooV47Bo0Ra8eBGrmQBJ61JHYMGCEThy5ALOnLmt0rkxA7tXr1bYs+e03EdqKp2AHINLOgJkfx89+nu+QmNAwCapRnB1tcfAgV0xdeoaqdoL3ah589q4evUB3r9PF1q0QuX169cBLi6OBULYPwzIzZmzQrRhAxkICl0BNRBepUo5PHqUm9NA6EtPTwc+PlVx+rRirH0dHQ7sJUox+UKvHMlTBwLs+Zk3byQWLdr60R9GHfRSlA6NGlXGN9+0w+jRSwQfonp1N5VE4fTu/RX8/Bpi0aKNCnvPCg5LCoFcQAAZCFJwUliT5s2rK+yHVWFKK1nwkCGdkZaWhc2bDyl5ZBqOCBABRRBgBv+HiCNFyFe2THZ0yY4XS1s0DhcQsJJ2EJR9N30y3syZAxAQsAXp6Zkq1EJ9h3Zzs8fQod0xc+YGpKYWvXVXpowVxo3rhQkTViv8pTfARlEAACAASURBVDNx4ne4desRjh8vOg3x1KkDMHv2BvUFSpqpPYG2bevh6NHrKtGzceNqePo0CtHR70o0fufOTfjsq4GBlKW3RCBV3Jk3EDZuPKhiNWh4RRNo374x0tIycOKEal488s6PpXN2crLD48fiY8LnzBmMyZOVk0rZy8sFRkaGuHu36IgLlmHy9u2iwyTlZUD9tIeAlZUpWOEjZoRu23ZU6RMfNKgTzp27jcePS5b/39HRGgkJ78Ua9ZImVq9eFbi6OmLv3tOSmtLfFUiA90HYtIm2bhXIWFDRLFqAORbGxSWKlctyCHz+9/LlHfkz/IgIchIUdEFIGBEQmIC9vTU4ToSYmOLzeJRk2CpVXPDoUURJRCi0L2Pg4GCDe/dkS/tdt64XbtwIVqhu2iSc30EgA0FzlnzEiG+gr89hyZJdYpX+9dfe/BfIf//d+tgmIGAoNm8+gJAQ9UirzM4gPT1dEBYWxcc8S3OtWDEWv/4aKPdXiTRjUBsiUNoJ1KtXGX5+dTB//naVT3XSpO9w/Pgl3LwpmyEgTvG1aydh8OAAlc+rtCjABQQEkoGgYatpZ2eB16/F7yBownRY0qGtW2dj5Mh5fNVIuoiAthEoaqdP2xjQfNWbQJ6BcFi9tdRi7SZM6IV583ZoMQHNmPrs2f0xZ8423s+DLiIgiYCnZ1mMHfsDBg+mwmGSWJWWv7MPu0mTfsTo0cs1Zkrc3Lm/iTZtIgNBHVeMlWSuW9cDV66o95nazJn9cPXqHRw5kn+kIRRP9iIdMqQ7xoxZIZRIhchhZ6Zv3yYiK0u64xKFKEFCNYZAp05NkJGRLke0AqvDnFuDediwLoiIeIl//rmqMfMuDYp269YYDx48w+PHUUVOx8LCGImJqYX+xvK5+PnVwIkTdzUGA7+D8PvvRzRGYVJUfgKurg7Q0cnBs2fCpTNmP4xTpvTD2LHLkZmp2KqQ7Fhi9eoJGDduOd69S5IfBPUkAmpEYNq0vnxGxxs3ZKtFwjIHMsfjqKg3Us2mVi133L8fodDntE2bemjYsDpmzJAu+6FUiqtJo7592+HAgXOoVq0CgoNfiC0G98svPfDw4RMcOZJfql5NpiCzGlxAwG+izZvJQJCZnJI6TJnyPS5evIPTp4NKPGL9+lVgbW2G48dLHurItsuYk+GNGyH8j/ZPPy1QuPMgc2z09mZlcJ8VYGFmZoSFC0di3LiVSE4ubLmXGJySBbRr1xBmZvrYvfu8kkem4VRBoHbtSujSpRmmTl2v0OF9fGri1atYPHnySmHjGBrqo0wZC0RFyV+XRZJyFSs64elT5Ttb9+vXDn/+eVLjUilL4lnc3/kjht9/V368bUmULq19c3/oRmDixNWIj0/mp2lpacLHE6vbxR7SDh2aYNmy3XzJZHYpslBRv35fYdOm4+qGQSH6mJoaIyVF8w0dhcAhoVpNoHHjqvDxqY1587YV4tCqVX1UqOCEtWsVV3ywbFkrvHqluPBTdVtcbu7cVaLNm8lAEHphWMKT+PgUocUKLo/tKLx/n4b0dMUeD5RU8a+/boDDh+mstaQcqT8R0AQChoZ6sLe3kSlvC9vVNDc3QliY4nK9LFv2MxYu3IaoKO0oeZ5nIBzThHtGo3RcsWI0Ro5cqvY6+/sPxMGD53Ht2mOF6cpKRDOHS3HppPv0aY4dO84gJ4c5YNFFBIiAthNgiZwGDOiEsWMDtR2FSufPzZu3SvT779qxdatM0swCVvevcsZDX1+Xd3RS5I9zo0aV0LjxF1i0aE+RSzB8eEesXv0PsrM1w0CoX78irl0TJrGLMu9JGosIyEugVy8/XLv2SKH+C5/rpqvLKrgq953Qq1cz/mOFrlwC3KxZy0U7dlC+a029IYyN9eHn9wUOHy7e8fDbb5vznv/iigxp6vxVofecOQOwYsUexMRQgidV8Ff0mNWru6NbN1/MmLFZgUPlhysqcBDBRLdpUxvnzz9ESkqaYDLVUdDo0V0RGHhA6uyu6jgHIXXi5s1bLdq8mXYQhISqTFksX/nWrTPRqdMYpKWVnoqQFSs64OnTGGWiLHYslvWubdtG+OMPelbUZlFIESKgBAJ6enrw9x+AuXO3ISFB/f3KhETCGwhbtvwrpMxSL8vNzQHGxkbFVhj8HEKTJtXx4EEY3r2T/gabPv177Np1Ao8fiw/pMTDQQ61aFXH1qnonU5L1pggIGISNGw+pJJypKF2ZM2ejRtVw5MgVqafCYsJDQyPx9KniwsqkVoYaEgEJBFas+Bnjx6+mbKCfccpNcFQLJ04InwhO3W9Kbt68NWQgyLhKEyf2wosXr7F9+39F9qxXzxORka/x6lV+TfUePZph1y75z7ZYDoBRo7pi+/aTYhN0uLs7Ijw8utjZGBsbKjxfgYw4FdbcysoEEyb0wbRpvyMjQ/LuCovhFudIKY+SdepUwM2bYfJ0pT5EQOkEqlUrh/v3I5U+Lg1YmICjow0fNh4bq9qQSm7+fGYgFP1DRwsnH4E2bWohMvINn7Xsw2VkZACRSFSiH6DOnRvi5Mm7SEoqHCP/xRduaNGiARYv3l2s0qNHd0No6AscOlTyZEny0Sm6l4GBPvT0dARPQlKnjjtu3gyXStV58wZhy5bDePSo6BSqUgmhRqWOgLm5Cf9VrehMoR/AKepZkGVhWE6W5OTS7W8gCw9lt23ZsjaaN6+NXbv+RVDQC2UP/3E8bu7c1aJt206qTAF1HrhBA09cvRoiiIojR3bCs2cxOHhQ+i1qQQZWAyHduzfmObJdF3FXgwZeqFGjEtavP6QGGsunQuPGlXDxYmiRnRs0YMdAFPkgH1nV9ho5shvOnr2Nu3eVsxtUv74X2DHmnj3nVDbxwMCfMXy45KJCI0Z0wr//3kRwMO08CL1Yzs7WiIrK34UWWr408vJ2EMhA+BxWnz4t+bS+kyZtlIYjtSmGQOvW1fHkSYxCE5jUreuGnj3bYuzYNSpZC319HTCfkSVL9uDt28J+JjNmfIdVq/YjNpZqSKhkgWhQmQiYmRkiOTldYh/2bHfu3AIzZ25ETIx897a5uSGSkiSPJVGZvAYs+2yPHr5Yt051CQD19HILamVlCR+m6epqDZZbJjxccemsP7Dm5s9fK9q6lQyEz28+9oCwI4GUFPnK9w4c2A7r12t3jQu2Tdm2bT3s2VOymgLMl6BCBUfculX0Fxxbq6lTv8Ps2X/Qtqi0b1FqJyABzQpZFHDivCiWvbBaNRdcvlx498zZ2QoDBrTHzJl/iB12zJjO2Lz5vyINa3l0HT78a7i4lMXEiRv5/C6OjpZwcXHA9evC7AZLo5OTkzW6dv0SgYHCV0r+7bdRfE6KLVsUH1FFBoI0qy1Hm6ZNq+PcuXty9Mzv0rJlLVhbmxe71cjOR5s0qYajR69JHEtcGVKJHeVsYGpqhMGDv8aKFX8jKytHTimAv39fxMUlYenSvXLLoI5EgAgojsCECd9gw4YjePMmt4bMp1eVKs4q9eupWLEsmjWriY0bhc0YPHRoO/69++yZdNU0haKvTJ7c/PnryAdBqJUTWI69vQVYiE10tPiEPBYWJvD1rYF//pHs2zBz5ndYt+6Qws61xo/vgd27TwlaTlpgpEWKa9euDp+x7fjxW3xmyZo1K+LmzVB+B+nTixlYS5aMwIgRy5CaKt/OkjLmQ2MQAXUm0K9fa+zadU7QpEtGRvpKzwNTtaoz3N3tYWhoiL17Jb9/1XlNxOmWZyCc0kTdNV7nwYO/wsaN/4n9umZlU1NT05GSItz5nLu7HRIS0vD2rXznheKg29lZwtvbGWfPPlTYutjbW+H163h89rv9cTwTEwOwXQvmFLlqleTzRxsbM76g1qdppm1tzTFxYm9MmLAeWVnZBebCslaOGNEVK1f+TQaCwlZZewT36PElDhy4rvQfNlUT/v57Pxw4cBkJCcJVLJ0+vTdmztyukqmxXDQZGepd7E5eMNy8eWtF27fLH58v78DUD+jatR727RMfbjh6dBdcvvwAV64Id3bm4VEWlSo54OjRO4ItAXOY2bp1CiZMWI2ICPGRCuIG9PGpgujotwgNFZ850cLCCIsW/YQRI1aIDRWtXdsVHTv64sqVOzh2TPLxzuLFQ+Dv/wfevUtGlSpOCAmJ5utS0EUElEGgV68m2LHjgjKGojGIgFwEuAUL1ou2baNaDHLRU3AnlhegJGf3ClavgHhWnCojI7vQtrw0Ovj6VuUt8MuXi84GWaaMGX+2KU0BLHYkI23hqU9jvQcNao3z5+/h0SPKeijNmlEbIqBIAg4OFoiJSVTkEB9lt2tXC0eO3BZ0rG+/bcLL+/NPzTYA8wwE2kEQ9O6QUtiKFT9h6dLdCA+X/atbyiFkaubsbIvGjatg9271uKlHjOjAO3q2aFGTD1lKTlbOuT+rIscuZVeSk2mxqDERKMUEpkzpgZcv47Fpk2I99dlHR9++fli7VthyA9bWJvzqvHv3XqNXiTcQ/vjjrEZPQpXKd+7cCIcOXRX7pc9iVgcN6oApU7YWUrNMGVO8eSN9bQZFz9PS0hSsSJK4cEJFj/+5/HLlbPD+fQbevi3sGa1IXdzdy+Drr+shMFCyH4Mi9SDZqiCgfSGLLVvWxIkTd1UBW+yYzD+IpY6/efOJWumlSGXYUW379g1w6tRtJCWpRxZLbsGCDWQgfLbqNWu6Izr6HWJiJOfBZg/XmTP3xBoINWu6wcvLFbt3lywXgCJvTKFle3uX448bnjzRvO165uhYuzbLiPhArDOk0LxInjoQENYwcHKyxMuXmlEOvGPHhiXO8GpqaiB3zhh1WP2idPjxx+b4559rgn7EVa3qggcP8lPwfzpuroFQH6dO3VEfA4GFOe7YoT0/XtLcjC1bfoGwsGj+nyxXp04NkZKSKtYaZyF0zs5l+JTLpfVinv7MufLIkWu4c+eZxk2TVW385pumWL/+qNS+DGySLi62/FwjIhSf3UzjoGqhwsuXD8P06ZsRH6/ZW8zSLF2fPi2gqwts2VK6Eu517FgPBw8KW7Nm0qRvEBBQfL0caZgrqw2/g7B9u+pyfitrouowjq2tKX74oRWWLNmvDuooRIfy5W35vAxbtgjj+Mq2+7t2bYzFiw/Ipa+fXxU0aVITs2b9KbH/6NEd+JKu9+5JLtbEDAkW/fDhql/fHbdvv0BmZsHQSImDUgMioGICxsYGfL4VecOp27SpjZcv3yIoSPM+CFSMXu2H5xYuZEcMtIMgzUrVrl0OrAznkSNBRTb38CiDnj1bYPbsXdKIozZSEGAOg97eTlL9aBcljh0ZjBzZAfPmSc7CaGSkx//AS+OcOG/eD5gwYYsUM6AmREC9CbRvXxO2thbYsoV+B9R7pZSvHbdw4UbR9u10Y3yOfsGC/li+/C9EReWfI7IiIHZ25nzhIXFXmTLmePNG2CREyr8tlD+inZ0ZXF3tcfOmcirmyTNDdnzi51cNhw8LGxIljy7UhwgQASKgaAJ5BoJ6hLUperKyyGeJeby9XeHkZIN9+4RLo8liboODI/D0aW7+7pYta4B57AYFhePxY8U69fXq5YMP/iZz5nyHhQv3qs0ZqYeHA+rWrfQxbphVR8zMVK+kRdbWphg4sDUWL94v1S6DLPcbtdU+AuwdM3p0Z8ycKfn4qyg63bp9iTNnghAXp9woH1fXMvj112/x00+B2rdoWjZjbuHCTSLK5qW8Va9UyR7v36d/3JkYMMAPly4FIzY2XlBv2aJmVKdOhY9f6C4u1ryXNcsc2LZtbaSlpeP06QfKA1HMSGzL09jYEHv2SC5AJaTC06f3wMyZBY+H6tf3wLVr2hNqJSRP1csSNjJB3HzKlrXiy+9GRr4tsomnpyOfpbOoy97eDLGxsv/AsyRqa9eOwrRpmxEVVfS4iuLv4eGISZN6o1+/xRKHYKHK4rhI7CxQA0nrI9AwpVIMFxCwRqTsF3GpJFnEpCpVKouwsBiJ6XvZ2XerVl/gn39uSETj61uFzwtw717hUBlbWzOkp2cVWfLY09MJkZFv+LwCn1/29uaIjaVjkaLgT578DR/RIAsflnAK4BAVJVuVN3YfODnZ8vcMXaonwJLdSJPopmdPH36tz517VKTSvXo15XcNb94MV/2klKzBzJm9sXXrCTx9qrp7ulmzanBzsxPMcVrJCOUajkXMOThYltg44xYtYjsIF+VSQhs6DRzoh/XrZS9mxaqL/fJLFyxbdrDADzbbSmcev+/fZxbA16VLffz9d8EvZlYfgG21BwVFfmzbsKEHn3b4yZPCXyTsRcT+/2vXCtduGDGiPfbuPa8xsdnKvLdYNrWWLavi8OHcZDFGRgYYNao95s3bJ5caPXo05V9ICxZIdoz8dACWUnrYsA6YNWunXONSJ+EImJoagvkhjRmzjje6S9v11VdfwMnJGr//Lky0UWnjownz+frrmkhMTMH584V3OB0crDB58rcYOXJNiaaSZyBcKpGQ0ty5QQM3XL36XLApfvddEzx8+Bw3bxbcAeA4wNCwYMnSWrVcoa+vh2vX1NdxTzAwKhb044+++P13yiiq4mWg4YlAkQTYBxcz1D4vwS4NLvY1zY5SP6/RwkI72SVt7RZpxlJWm5Ej2+LGjUe4dEmxoaXcokW/i3bsIANBWQsrbhxbWxNMndobo0atV6gqVlbG6NixLrZuLb2RK5Mm/Q8BAX8plCMJJwJEQHkE5szpjTVrjiIiQnZ/i6lTu+Pff2/i6tWCH1ojR36N0NBXOHr0lvImItBIFhbGSEvL4DPWKvLiDYSdOy8rcgyNlF21qiMePCg+k+KECZ2xf/9lPH4s2/la9epl8ehRjFSVGtnRQ0JCCk6dEsaBkG2nN2tWBceP30P//i35FNBJSekauUbilGZZDT9kNPz22y+xd+9VwRMYMSfP/v1bY8YMynlRqm4emkyRBMqXt0Ht2h7Yt0+5jsPSLgf78ImPTxWz+6CHtLTCx0TsR5btHiQnS1/3oGpVZ/5dIs7pVFp9hWxXubIDxo37FrNm/YHnz4XN5MpHMfz551Uh9S0VssaN64i1a48jMVH8j6eBga5cFlyPHvVx9eoTPHsm2RpmjodADuLihE/Z+v33Przfw6cGAtuOa9q0Ck6evK/W68gKXQ0d2hazZxe/UzBzZg9s3nwC4eHCPjgMTmnMP6/Wi07KqYwA2+H08HDi31vqdnXokJvoafNmYXZFmTEk7t3cvXsDhIS8xN27RddTUBWbypUd8fixbKUBpNGVW7Ros+jPP4WL85dm0NLUpnbt8rhz57nCzrHq1HFXqPczC7O8ciUE9+/nOkKy8Ckfn8o4ffqhWi6Tg4M52Hnk8+dvYWNjgrdvZTecvLwcERwszMPEqnW+ePFOLVmRUkRAGwiMG9cBCxf+I9hUhZYnmGIqEJRnINAOQlHsJ03qgm3bTiMiouiqjiyNb58+zLntlNgtbDMzQ/5vHzyh2Y9at24NsH69dN7D333XFNu2Ka5WhouLldj5CXU/Dh3aEps2nRHEG9zX1wuOjtbYtUt+o5btDi1ceLDE0+vQoQ58fKpi1apDUu0GlXjATwSwiAcWzVL6L+XkMij9HGmGREB2AtzixWwHQTsNBHYen5VVOPc+S6mclJQqyK7ADz/4IDExFX//nZvjgBkMPj5eOHq06HoOsi8hi37Qg4+PB06ceCxPd4X3+frrGjh8WLj5yqvwr792wq5d5wX7MS9XzpJPkPP8uXJ3ENjR1qZNYzBy5G9y7aDIy4/6EQEioF0EuMWLt2itgTBxYhccO3Ybt28XDBWZOrUb1qw5htevU0p8N9Sq5Yy2bRsgIEC+mHppFGAFjXx8KuLMmeLPB3/9tTPmzxe+kiTzW5gwgeV8+EetHR6ZIcV2czQxrOnT+4CtN0vP/fo1JbeS5vmgNkSACMhHgD9i2LVL2JrX8qmi/F5mZgb8trcic/6bmOjxaYM5ToQ3b2Q/L5eGStu2VXH0qOQoB0dHS0RH5xafqlHDEQYGerhxIz8JkzRjFdWGFTFauPBH/PzzerWtUbBw4Xd86OO7d0V7On86L/aF3rJlFRw5ot6OmvKuF/UjAsokMHdub0ycuF3QId3cymDAgFaYMeNPtX3nCDphFQnjdxC01UBQFPMGDdxx9Wp+WlULC0P069ccy5Ydk3pI5t9QVFrkzwWwH7MxY9pj2bLDRYbyiBvQ3b0M7+z36FHBAlEseYi7uw2ePhXe61/qySugoaWlERISig9nMjc3RMuWNXHlymPeUXP3bvUM6VIAngIia9d2xa1bLxQ9jFbIZz9khoa6CAmRLRRaSDjVqrmgenUX7Nypmnw3DRpUwtWroUJOiX93MYdl5qxMl+IIcIsXbyUDQWC+Q4b48eGDMTGSncisrY1RuXI5XL6c/wB17FiTz6C4d+9NgTWTLC7X4PgaS5ceRnq6YpNwSNZG+S3q168geOZK5qvACvIoOqmJELRMTfUxfHhbzJ9fcidOIfTRdBnNm1dBenoGLl16qvCpfPVVdSQnp+DixYIJgdiasg8OIY5MFT4JGkAmAkOHNsf9+89x/rxisu3yBsLu3ZKLBMmktQY2ZuF97MghPj7/K9PS0hjGxgYft+WlnRarn+DszGJp84v1DBrUHOfPP+QTJH16OTiYoUEDTxw8KD6bl6urLbp1q4+lS49Kq0KBdm3aVOPzOVy6VLwVzxhkZalXiWW5JqxmnZgDqYmJEY4fpyMLNVuaUqWOjY0pzMz08eJF0VFXpWqyNBmegKLTRecZCMr/UlW39WVbgQMHtsKUKTvx88+tERh4gt+WY0bCzZthvGPb5wWW7O0t+GiH1NSChZdYdcRRozpg0qQdH6dZtqw5Xr2Szqks90E3EDS+3srKqIDxUxT/8eO/xj//XMejR7FyLw/7UvH2LosbN4SrX2FhYcT7iqiiaA5LVMXKc3+6xsbGLPpFJHh2RknQ2THJoEEtsGTJUYkVQiXJUv7fKVxR+cxpRHUnULeuG1j11wMH1DPdM7dkyTbR7t1kIBR3Iw0Y4IPk5FT8+WfBnZb+/X1w504Ybt6MEvQ+7NChGh4+jMXTp/L/UAuqkIzCvv22biFWMooo0Hz8+Pa4cSMUp04Fl0SMXH1nzPgfDhy4itu38zOn9e/fFKmpGdixQ/5cDHIpA6BOHWfB7zd5dZG+X+k2DgYNaop16xSXq0R6ztRS0wi4ulrxyenCwtTTl4LfQdizRz2tF0Uutre3Pbp2/RL+/pLD/lilRRF7x31y9ezZkP+yPHDgtiLVlFo2m09UVAISEvJTQ7NwuDZtvHH4sPgIh0qVbMFKvwYGnpR6LHENhwxpjjVrpEsAJctgbBtNmaGJXbvW4tXbt+82//B+fuzC/DRYdbjs7M9uClkmRW1LDYF27WrC09MJy5bJdwRYakDQREodgbwdBO0zENhK2tmZinXcqVDBBj16NMbcuUWn8GzduhoSEpIELQVd3N3FYvjnz++DadN2FlkfYu3awZg/fx/Cwl5/FMN8IQYO9MW6dWcV7lvAjjDs7CwRGqo6b22hnk4dHYAVf3n7VnJIpFBjkhzNJsAcAVNSCh41atqMmjSpiAsXFO9MqWlctFlfbsmSP7RyB0GaRTc3N0BSUoY0TZXSxt7eFLGxRSdvYs6O0kRNKEVRGoQIlJAAM9BYSuxp03arxU6NjU2uwzLbpVP19cUX5XDnTsnzl3w+jx9+aAxWl0cbo5dUvabqOn6egaAe2+TqCkkd9GK7AVOndsXs2fsUmthJHeaqDB0qVbKDl5c9Dh2SnGBKVn2aNfNEUFAkpUGWFdwn7c3NmUNmcyxfflzhu1/SqNmokTtcXMpg927lJJUzMdGHlZUJXr4sbJAMGdIMa9ackUZtpbVxdLSAoaEBnj/Pj9xS2uA0kMIIcEuXsh2EOwoboLQItrPLLY7zuS+CIuY3cGBT/P77hUIvRuYvEBpauhIYKYLf5zJ7926Ac+dCERGR7wjEamKUK2eBx4/zj2SE0oWVn3306CWePBFetlA6khzxBLp0qYnjxx8WilpSJrOKFe3RokU1rFt3SpnDyj1WzZos4ssE584pxpF4+vTOWL78mMRILLknQB2LJMDvIPz1113CUwwBFl62cuVA/PTTOqlrDTDHRkNDfaSlyX4u2blzdezff0+t1oR90bCkHMyZUVVbkEyHTp1qYOdO2aJuatZ0wNOn75CcLOxxUZMmbrh06YVSHSjV46Yo3VEJPj7uOH8+PxOqJOY9e9bFtWtP+XuMLiJQmgjwBsLevWQgSFrUBg3KoXFjbzx4EIWXL+Nx717xoY2sHG+fPo2wbNl/kkQX+vv06V0wc+bfMvWrWtUekZEFoxhkEvBZY5bNMTg4GsHBuU6HzODp2bMeduxQzhZrUbqz6IHatZ1w5Up+yGFJ5ljSvqtW9cfw4Zu0ykBgO2jsXqArn4CHhy3Cw9+qha9EaV0Xtgt48uQjREcnltYpquW8uKVLt9MOgpRLw2oqGBkZ8uGNycn54YRSdpe6GTvOeP266DTNAQE9sHr1cUREFMyW9tNPfnyyjchIYbKoscJOrEy1NPUgpJ6YEhq2aVMVLLnR9u3ylTBn7MeP74gJE3ZKfOGrmxOrEvDSEGpCoGlTFnGQm8BNGy5fXw88ehTNpyynS3kE8gyEIOWNSCOViIClpWGBXAclElZEZ/aVznYw5s07qFYRHLLMk2U6TE3NkqVLgba2tsaIi6MQR7kBUkeFEjAy0sOYMW2wZcs5REXJ/0U9dKgv9u69ITYySpZJsIQ/7GNCmoq1U6d2RmDgcakqq8qiA7UVngC3dOkO0d69ZCAIj1Y6icwZKS0tA1FRwnz5SzdqwVbdutXBhQshiInJTQXt7GyOqCjp0kLLM56kPiyMi2UqDA7WzEySkuZHfycC6kCgUqUyCA0VJuqge/d6CA+PwY0bkquANmpUAXfuvCiREa8O/LRBhzwDQb0c4jQZPLv5g056XQAAIABJREFUg4IipE6aUrOmMx+2+PBhwbLLjEHbtlURFhaD4GBhHmJxXFnK6LNnH+HJE/nGYWfSXl6OePIkVpCQtGHDmiEk5BVOnFCMR7Q0dSk0+R4k3bWPAPux79SpDhYtOi528hUqlMGzZ3EaeSzBjndZ/RNNO/LU9DuRP2LYt0/4WHBNByOv/n5+Hjh16om83Qv0++WXtrh8OQQXL6p3djOWjpj5QGzYcFZqw0gQQHIIYccHo0a1xdSp++ToTV2IgOYSGDbMF9euPcGNG8LWjlEGkW7daiErKxsHDtButzJ4fxiDW7Zsp2jvXipDO2JEM6xcqV7JR0pyIzg7W+HXXzti/PidcoValmRsde07ZUp7bN58DpGR8p/bquvcSC8iQASIgNAEeANh3z4yEIYPb44nT17h2LHHYhn7+3fDqlUnisxuJvTClFSeo6M5qlVzwsmTIRBJmd3p11/b4e+/ryIkpHQmY7KzM0d8/Hull2ku6Voqqj+FLMpPdsgQH9y8+QzXr6tHyK2sM/H2dkSTJp5UhVJWcFrWPs9AoCMG5r2fkZFd7PIrKqytfHkbGBrqIjhYtZn3WL55TSxQ5OVli+Dg0mnUaNn7SOx02dHQ4MHNERBwRCYk7Jll/16+FDY8jkUTJSamKyWzqkwTlrIxi/SxtmapnGk3TUpkWtmMW7bsT/JBKGbpWVx9VFQc6tRxxebN1+DnVwm2tqaQJT11jx51cO9eJB4+LLrS4ZdfluerSoaGqsZAqFjRBk+fqmc98uKeSlbi+uHDWHz7bS0EBUXx/50uzSdgZKSLunXdceFCQV8eKytDxMfLln+kcmUHsH/790t/du3hYYMnTzTveZB35Zs29cCTJ9GCG1Gy6MNqXURFvcWLF6ovhiWL3qW9Lbd06U7R/v2PSvs85Z5fw4ZuuHkzokCBpOJ2EtzcrFC3bnns3Ztf38LOzgRpaVn8DoWHhwMePHgptz6urtZISEhFQkKa3DI+7zhqVAvs338Lz55pVqrY/v0bYePGy1Jx6NOnPv7++w5SUoRNt8wGd3Q0Q3p6Ft69E25NpJpUKW3Evm5/+aUNzp27h7Nnnyt1ltbWRujTp2Gp8keSBLB5cw/4+nojIOCwxF1USbI+/N3FxZLPr8CeC2muunVZhcqXgkRBSTMetZGOAL+D8PffZCAUh0tXl4OjoxVevnwncUvRxsYI5cpZISgoupBIti3ZufMX2LJFvix/TGD37rX5kMgHDwqHRUq35Kptpa+vi1q1yuLaNeHL1RY3Mx8fN35NEhJyv0BbtqzIv7zOny/5D9A339RCTEw8zp4tmL+/T586+OMP2epGqHZ11Gd0duSmqpof6kNBcZqUKWOKN28Klo6vVcsRzLn50CHxfljSavTTT035iIO4uGTKdyAtNDVsxy1fvosMBAkLw2Jwhw5thiVL/uMNBHt7U7x8qbpEQmp4H0mtUrlylmjbthrWr78odR9FNGTZ6NiujiKvUaP8cOTIHYSEaM92tSJ5kmzhCIwa1RzLlp0uJJC965hvhVDX1KlfY/bswzKJY2HT7D2bnZ0jUz9qLDwBMhBkZDpzZif899+DQuejMoqh5lpAgOM4qSNItAAHTVELCZiaGiIlRTaDo2XLynxo9oUL6p3/RRuWM89AKPmWkibDYn4D7dvXxG+/nZU4jUaNmE9CpGBndeIGZJb3tm2XNM4vQCJAakAE5CDAivXUreuGxYtPytGbuqiSwNSp7bBx4zmpnCA7d66Jy5efIiZGuqiTihWt8PSp6tLUq5KrMsbmli3bJTpwQDEpbZUxAU0Zw8xMH8nJmYXU9fPz4uOpP5yNf2hgYWGAxEThHOo8PW1LbX4Ddb4HnJ3NEBWVjM6dqyE9PRNHj9Kzps7rRboJT4A5ab9+/V4qwTVqOCM8/A1Y2DnLW/L4cW7kl6OjKd6/zyp0/MF8HfbsuUVVHqWiK3sjfgdh//4Q2XtqeQ8WiuXl5YC7dyVHJDRsWA7ly5fBn3/mRzZ8wNe3bwP8++9DqX0aKlWyhp9fZaxdK957n0VZsIcrLCw3N0DlynZo1646Nm68WGwlyMGDG/HRF2/eUCVDWW7v4opb9e9fH8ePP0RkpHRfRLKMS221k0CjRuURGhqjUc+pqak+WJ6ViAjp8i6wUFOW6G3//twkft99V5cvbx0eLtmfhzm49u5dH1u3XqWoiBI+ItyKFbvJQJADYpkyJujUqWaRYXbOzhYlKsMqSR1xuxEf+jVo4AZWNOqDExILBzxw4G6xpVgrVrRFtWoOOHDgoaThS/Xff/qpCX777YLUc2T3Qf/+TTB//r9S99G0hg0auMDa2rTYLKOKnBMLPWQhwikphXfgFDmuuspu3NgNFy+WPPpGmfNzc7NB3bou2Lv3rlzDfv99XRw58lCqctIGBjp8vpoTJ0L4Ak90yU+AW7FiDxkI8vMr1NPW1ggjR7bC9On/SCW1dm0n+Pp6YenSwh7FUgkoohEL6WMe+tevS1+UxcnJHOzBevZMuEQlbJdl/PjWWLLkFJKTxTsqse3E1q09cOiQ6rffq1YtgwcP5KtqKe96qbofi+hgIbgxMQXD3j7oxY5JsrNFiI4u+u+K1v+77xrg4cOXfD4SutSPAHtvZGQUjDhguSx0dXWQnCzMMWnTpuVx+/ZLJCVlwNLSmM8FQ5fiCfAGwoEDoYofqZSM0KBBOf4s7N69wnkOPkyxfHlr3lr+6y/ps7eVEjxyT8PPrzxOnXomd3/qKD+B1q0rQkdHB8eO0XtAfora23Pq1DaYPftYAQDVq5eBg4MFTpwIExzMkCGNsGaNdAnSBB9cywSSgVDMgg8a9CUOH76HqKj8nAeVK5fhreWwMPFnYYaG+mBfZWTlatnTRNNVKgEXFwv88IMP/P1li7NXqpJaMJiVlTHi41X7Rc/8rL78siI2bbqiBcSVN0Vu8eIdoqNHNes8S1l4nJ0tUaGCNW8Jq+NugImJPlh++s8L0fzyix8WLTqlLExSj+PqasX7baxcKTmcVGqhGtKwVavcr/TjxyV/pWtrlcXBg7/EmzfJ2LtX+p03lib49OmCNRs05JYgNSUQGDasMfbvvytVeCQ70rC1NUNkJIU8CnljcStW/CU6eJAeMCGhipPFQg1TU7MQESHMOb+bmzXq1CmHffvufRySORrev190UShZ5ti+fRWEhLxGSIiw5/GsbkF0dOn26G/WrCIyMrJw6RIZ3rLcc+xoztzcsNjju6LkeXmVQXCwsPepLHpTW8UQcHQ0QXS0dOGRitGApOYZCJSxit0KLNbWz88DO3aI97QdNaoZzpwJ4QuLyHrVrevMHzuEhkoO1ZFV9of2P/xQB1u2lDz/v729Me81npKi2HTE8s5TEf08PGzB/h07RmG/iuCrKJmjRzfDyZMPERRE1TwVxfhzufr6OjA318fbt5KzJFav7oiyZS3w77/0XClrfYQah1u5cq/o4EEyEBhQHR2O55qTIz40pn59J94n4VO/BKEWg+SoloCDgylfmfHuXck7MMOHN8aff97SqFh01dKl0dWdAMvXEhoah7g4yf4EDRo4o149dwQGSh8SrO7zJ/0KE8gzEIT3NC2NsD09rfHNN/Xg71/ymHdDQz2pS6FqOss2bTxw9240Xr1SztGCnh4naPxzr1418eefd5FDtWMk3oq1ajngzp0YiVVPJQrKa5D7pWqAt29lL6XNqrC6uVkiLIzOpT/n3b69N19p8fLlFx//1KyZGx4+fMOXaaaLCDAC/BHDoUMFy9QSGvEEDAz0+PPlklx6eroYO7YZAgPD8eyZKwwN38HA4C2MjEpnnHe7dl78i+jdO8lfJiXh+qEvY7t48RkhRPEy2NfSjRuvqLqcBKIs7n3Zsm/4qqfh4blZPEt6sRDM8PAEhIbK7mNQvbpDXqidZMfQkuqpaf1ZpBUg0pqPFE1bH3XRl99B+OcfMhBUsSBpaQPAcSyhUg6ysnSRnm4IHR0TZGfbIDPTHFlZeoiPN4KhYQaMjVNhaJgKY2OWpzz3X0kvSbsYZmYGgiU6Kamu0vRv27YSnj2L57+A4uKU69w0ZEhDbNp0o8TGozTzVOc2Dg7miI9P4+tOqPPl7m4DW1sT3LgRqRQ1O3XyLpCltHx5K3h62iE2NomvO3DtWhTKljXjMwBu334bLELp5599MXfuCbi6miM5OQtv3yrHwFYKEBpEIwhwK1fuox0EFS1VUNA3qFFjt9jRk5I8kZVliJwcI+TkGCMz0xTZ2YZITzfC+/eGfKay9+91YGCQDB2dDOjpJcDcPBVGRmnQ1c3f5dDTywDH5e+Ps1TN06c3wtmz4Th0qOCuxVdfOeDkydfw8DABSwq1ZUtupU+Oy4apKR1FiVssd3drPH8eX8B/pbSFK7KveTMzI+zb90BFT0zhYRs2dMGVK/n3cNWqdvDyssO+fcWnDK9QwQa9etWBv/9/JZrLkCFfIj4+hT+CKu76PLqI1SVgxhSL2uja9QtMnnyY36GqVMmW9wNgFzseef48Aa1aefDVDYOCxCdnK9EkiujM7ucOHapixQryMRCarSbJyzMQKIPdqFFNsGxZ7sPAzj0zMxV/4PzyZRs4ORXMQPbpzfPgQV9UqCB9edseParAzAzYuPERcnLYUYgZUlLMkJhojpwcQ2RnG8PAwAC6uiJkZmbCwiIVVlah/I+/uEsk0kNiYnnExZmiSpUz0Ncv+c6FKh8QJyczqeKqP9eRfeW5uFji6VPFRaCokoumjt2sWQWcOZNruLI1qlnTCbGx8Xj+PD+5mbi5OTmZ4uXL/PN21p/VfPhwcRwweHAD7N17H69fiz+XZ4WISlInQl3D+Vja+Lg42X0/NPVeIr0LE8gzEChe+wOanj2r48WLeFy8KL8/AHuwWGYvSTJiY/1gby8+odHp0z+hUaP9MDKSrqaCl5ctoqOTkJAgPv95drYR3r0rh9ev6+H1ays0abKR330o6kpPt8Lz575wdr6H7OwkWFi81shnqE4de1hbm+DEiWcYPvxL/PXXHZnjqx0czNCxY1WsX39VIxlog9Lsh5qV1d61645cTqqjRjXGsmUXC6Byd7dAeLh0FQglMWb6sTwoxUVJSZKhDn9nzp//+19V7NqVW2mRrtJLgAsM/Ft06BAZCPIs8aBBdbFu3Y1CXcuUMUaFCla4du1Vgb/p6emgUiUrPHqU+xUaE+MDB4fzYocODW0Bff1slC9fcoe77GwDsCOLsLDKqFHjOPT0knD+fF/4+GwuND47xnj3rhbS0sxQrtwJ/u+JiWVgYaG5uwcmJnp8DQ1tudhLnJ1js+I27GK7YuyfNjFQ9lqLex980OP772vi7dv3OHSoeKdJtm7v3xf04WCRHGyXQl2MCz8/N5w6Rb8byr7HlD0ev4Nw+HB+qIuyFdDk8ZgnsCzOWJUqlQHLpnj4cG7VwthYb9jbiz8rffasFkxMrIvdZZCGX3BwN97R0cXlOHR183cLIiK+hotLwTz26en2ePToa1Stuhf6+vlfTomJdhq7gyANo9LWpkqVMmjb1htLlpzjp1a1qg2aN/dCYGDpL3LTokV5nDyp/GNTSU6/LNV27g988SWIx45tit27byMiIv+YZNiwhti9m5VsJ0fF0vasqvN8+B0EMhBKvkTe3rZ4+DA/tIudZ7Zr54n9+x8VKTwpyRsiUTwsLIrOyJiVZY63b92gr5+BBg2AkBDZspClpZXFzZt+qFbtGkxMXkFfv3AOgpgYPzg45B5xZGZaISioFapUOQVj47fguIIvscTECrCwICfFzxezenU73LtX8OhlwIAGuHXrBW7dKriDVPK7TDYJ+vq6yMzMP1NnicDU5QtUtpmIb82S+3h6OmDr1vzsoV27VsH+/Y81dq6s0Bsr117cVbmyDby9HSU6Y36QwWoVlC1rirAwYdK8y7J+zs7mGDWqBcaN2y9LN2qrBgS4wMD9ZCDIuBC+vu5gDkxnzuSGhzLHN29vO5w4kR8uyr4mRo9ugrt3I3D0aOFMlTExTWFp+QBGRrlGBcvg1707K2SUewaakVEGSUlsW/8lXr2qDVdX6Y4ZkpPL49075m0eDkvLKOjoiE+FmpBQA5aWQXj1qiEAXdjb34aubtHhgWQgFH2TdO5cGSdOPEVycv6WsLW1Ef+CZ+fNdCmWANuOZ4ZQQkJBZ7oaNewLpF4uV84MUVEpELHQklJw2dgYwdTUABERiWD3GzP8EhLEP+tsR8nT0wYHDsj2oSEUKlb0LizsnVDiSI6SCHC//cYMBPkd8pSkp1oNw8IE2ddYYqJ4Z8APCov7agsJ6QJ395Mft/ENDXXBUv2+eJG7rZ+e7oiUFAvY2IQgMrI1ypUTn70xO9sEz59XAceVgaXlM9jY5B5hSLoiIxvzYZOOjrdgaFh8trmEBC9YWkonV9K49HflE2A+MdqUUZDtIuzbl79717dvLezYEVQgSkH5q6CYEZs0ceMzV168SD4BiiGsvVLzDATlJAtRV8zMeYt9Ce7ZU3zstJD6X736HerU2Qs9vdwvdubAOHx4Qyxbdon/36mpzkhPN4aV1RMkJLjDzCym0Nd9VpYp4uM98Py5E2rUuAJ9feks9IwMC7x82RgmJjGwt78l1bTi46vByoq8lqWCpWaN2P09fXprzJt3SqMSXykaIzPKWWSBPGmcFa0byScC6kCAW7nyb9HRo7JXJlQH5YXUoX59R1y7VnQiEnaG9tVXFbFp051ih2QvYnbWV9TOgq+vGxIT03D7NstTz+G///qjVavfxeYgSElx57cNzc2fISvLBJGRvihf/ihEIh2kp5sjKsoHHJeOChWkT/SSk6OP2NiqSE4uA1vbdzA3fwg9PemcnuLjq8PKKr+s9Kcg2HFLt25VcOzYkwJb7R/aGBqyvBIijT0TFvI+k0cW20bPyclBWpr4fBXyyP28D6s1EhWVXGRMf7Vq9jAxYRn/VOtXIcQ8P8hwd7fC4MFfYsKEI0KKJVlEoNQQ4H777YDoyBHp4uxLzaylmEjHjh587QAWFvbgwRupXs41atjB17cCVq4sHCtftqwJXr3K3S0QiXRx+3ZP1K79h1hNmIHAMqtZWORuG4aEdEb58udx5crXqF37AszMZHMYZLsNDx50QtWqB6Gnl4wXL9qiXLmTYnMgfK5YXFxd2NoWDun80K51azdcvBhVZHnoBQu+RlxcEubPz/Wop0s2An37fsEnaDp/XrHRRqzmRGpqBoKCCue7sLU1RJ8+tbB8+RWZlLew0EdiYsGQPSYrLk5ymWCZBhKgsasrSyyWqZa6CTC9IkVUr26De/eKT/7l7Z2bFnr/fqppoah1UFe5ZCCIWRmWr0BfXw9WVoa4dEl6A4qlP2Y/7MVd7Es+MrIFXF3FZ1GMj/eGgUECTEyiEB9fGWFhdeDldRQmJvEF0iZLc2NdvdoN3t7XYWYW9XHH4tatPqhVa2exWRSZbC8vSwQHJ0CSgVCcHsyZil0pKeJ9Nn78sRaCg9/g0qV8f5jJk5thzhzJzplMRycnC5w+XTp9aaS5p6S5D0rShvnSsHVMSsr/Ya9TxwFly5rj0KEnYkUPGVIPL168w5EjuW3YjzDLfrh1a1BJ1BGkb6NGZf/f3ndAR3mdaT+j3ke9d6EGEiC66EWmmG4wtsGAsY0dx07545xN9uy/+bPnJLubZDd2HBubYDDVdkw11fSOGhIyQhISQkINCXUhCYTqf947jKTRzDfzzWhmNJLuPWeOZeZ+tzz3znff+5bnRWJij0Zk8mQfFkZ4/77MH4cikV5/PVaj5lAvgxmgRl5+OQqHD+ehvV34nUWaUaKGfvSIZ3kcoGUasG4ln312tOvUKfEH4ICNdAh1TKRFdXVj4e6eIjir+vpolJQEQypthbPzXeaDQGaGhIR05rVNWg11hbQUJFg0N/vAyysRlpaKP+6zZ99GQsJ2pXDGvm2++GIYLl4sQmnpWLUahP4uj7u7HRMgenv+T5sWgNTUhxody9aujWFZ+z7+OHHIeKlrg2dMjDvu3DFNEisSKojkp6LCOKm+1eE2fbov3Nzs8f3399jhv2RJOA4dkuUa4YUjwBFQRuC5gMB9EKyszPD22xOwbVuaQux4X8jCw11BatO0tEewt7fAu+9OwiefJMHPz4H5H9y9K1PX9eZXf++9CUhLe4jS0gbG/d7SImVhjE5OyuGPFJFQVjaG+QkEBf0Ie3uZWpn8FrKzV2LRoitwdIRaAeHJEy+UlIxHQMAtxMW1wMHBGmlpPf4VJKDcu7cYUVGHMXduMEaMcEVOTrVaFXZl5XR4espyVbi4ENOi6amIDfEDDwuTsrmSp/jRo6YXxUEx86tXR2Pv3h7/EArpo6Q/JNj1LkFBTswEVF2tHMo6dWoAMjLKB4RpkW7pRIWtyjSnak1JmzF+vDdSU7X3hyBnYHW3ZUPsId4mR2CwIiDZsoU0CNr/0AbrhNWNOybGDVlZtQq30EWLQnDtWikaG2V2VHrJUiKnhw8Vb0ShoVLY2lp2H9ybNo1Bfn4Vrl59iHHjvDBtWghSUkqQnFyGurpo2NqWw8amHs7OpE3owOPH3qiqioWZWQOCg1NRUxMDJ6dSWFv33AyJ/Ki9vR0ODqpzIrS1OTB2RqAdfn7pLBTzV7+axhLN7N+f2f3yb2+3RUVFPPz9ZSRJUqkVJBIJ6uuFD/1Hj6bBy0vG0bB58zicPJnL4sp7FwsLiU4c+AO9l9avj8WVK0UoKlLm3H/zzThcvVrIhCxyMJXtASlorqSKDgx06g5N1TQPEijpgO5vGTfOg92Ez55VzRbo6mrNQmbllN7y/kgYbGpqRUqK8oVg9uwgpq3pT9IhXedF/jm0/3onTlLXFmnQiLZ4z54fNWqXxIyJfoMJCSE4cCAX5Ec0Y0YwiosbcOzYwHAGiBkzr8MRMAYCko8/Pth1/nwPA6AxOh1MfURGOiM3Vz1HgLbzKSubCW/vRPj62mDGjGn44x9b4ePzQIGpsLR0Mry8chTojqmf8vKp8PGRhUJSIU4GIumprw/Go0cRCAu71h06KTQuioJoaQmAVKo6rJPyFrS2doK0KnLu/tLSOfD3v6jUJEV4LF0agZqaZvZSTU7Wn7Dp6WmHysonMLU8CmPGeDA/kzt3avDKK6Nw+XIBKio0R4P84heTcf58Ae7cUZ/0igQ7+dyFmA9tbMxFOc5quzeHa/3ewq27uw2qq3kWw+G6F/i8exCQbNlyrOuHH4yXZ3wwgU8vagrh6+hQz75GLxciKpHXo+coWY5QyuicnBXw9c3C/ftjER19Eba2yvZjIQHhxo2lmDjxIqNOpj4XLhyFP/0pBjEx38PCogU//ekEbNkiHG1A+Dc3O8PKqguWlqppV9esiWI24/j4YPzpTzKzQknJbAQEaHYY1LS+ZIqZPz8MX331o6aq+PDDqdix4ybeeGMcPvqox3vezIySD5kzVbGmtaFOCCdax4Eufn52TOCqq1NPsEVhob/97Sz8z/9cG5Ab/UDjxPvnCHAETAMBLiCoWAfytDY3twDRtRJ96aVLPbbc0aPdcfu24oE+b14gU3VevSpz9iS189ixXjh69B6WLQtnznfnz/e0cezYW4iOLkNoKIUZKoaAyYeTnz8DISGpMDdXvMk8feqD1lZLSKXFyMujSIhG2NmlobNTFiNvZUW3f/Vq7IYGN0ilwlojEnDoUCUhR26v1ZeAQKpk8oomvDQVqkvUuH3txsHBDnjnnak4fPgOU4sPxSJL7KM+GsYY8x43zhOzZ4/AX//ao7UyRr+8D44AR2DgEZBs2XKcaxD6rAOF9Li52aCwsEHJoWnFinCcOlWIZ8/a4evriNWrR+KTT5R5D+RNSqXWTBVM9al0dlrhhx9eRULC9ygsnAQ/v2wWfjhtmh/jEZCXe/dmIDQ0Bebmin4BFJ3gk3ge0S256OjshLXNY0Bixh4jPQfdTakn+rtTYoZ212j2HdWgSzSrUxMGCzeZg6Q8t1xvHYk5gA47V4XvnhTFwSnoluK/kTZCYo7ygIkDv5P1MILgYGd4etoyMiBKZ0tOcPJ0yb2bf/fd8fjnP7NQX9+CFSsiceSI6TkvagOHv789XniBtDrKoYf0W4iL82DCrxihTky/ZOePjHTH/v0yKuR168jfxo75yVCYobOzDTZvHo+//EXm86KuhIRIQblRdu5UT2Kmqg0yXb3xxhhs2dKT6Gn9+tE4dSpP0MRApp+1a0fj4497NFrkbyRGI6ZpLvx7joCpIcAEhNOnZc5XvGiHAN1syfGsoUFzTgZ5y62tjkhJWYTp078D8SHU1weitjYAL710H4WFFd3OkBkZszFmzFUlnoIOtMPi/Xcx8+Vfw9zqCaycCtDV9hQWRNf8vJOujnZYWHVC6u+I6rxaWEl9IJGYge6jJCS0NgTDWipzcLNsl2ko6N/ld3r6WyZyyP6dPu11IbBwKWR/W7Q97RY42i3ssDP2Ze2AM9HadDARa2F5eROiotxQWFivMqteZKQbiooa2HdhYS64f189xTUJfzdvVuDZM81aE22hIUGW8g5s23ZL4VHK3DdtWiAOHFCdTbRvP9ROTY1x7O4U7UM0x3KnWBqrk5MNSkoaQFEjmZk18Pa2R0WF5rj7iAhntg7FxbqFUTo6Wnb/5ggTckJW5ayqbl3IbEYMlOoK+Yy8//5EZv6Th/Ju2hSLixcL8eCBbmPXdq/w+hwBbRGQfPbZsa4zZ9Q7TWnb6HCoHx3thpwc8c6dI0Y4Iy7OF3v2lKOyMhaBgT2sgi0tbigvj4KjYxnc3WUHd3LyXEyeLIsy6F2qah1x428vI+E3H6O6aiGsrRvg7Z2lVI8cDMk7u7JS+aWfnz8PI0ac12qZ7t5dgKio01o9wyvLEHjvvfFITy9FcrJhBPGwMCfcv68YgUEHX0CAI7Kz1bPk9XeNVq+OwKlTBUrRGT4+DggIcBCkLxfqd9WqCBw8KD56YPEFtQv+AAAgAElEQVTiMJSUNHZnbnz33bHYty9bbzknaA4lJfwA7+8+4c8PTgQkn39OGgQuIMiXj7LeUQpVIQdDeb1160Zh374sZh9/6y0KuZKFEVIMOrEvkod770ICAoXKXbpEynxXRn7Uu3R2mqOmJgpPn7rC1zcVt2/HY9w45aiBywXjUPflGCz43UewtXFGc7MHamuj4eaWDTs7cWQ5N28uxoQJJ7TasZmZi/CXvxTj0KF76OjowJw5gTh5UpbeOiTEEUTT++23xiWdoXC+2trBwcdA/hxyh8q+t1atFsIIlbXJ/BgV5Yy7d5WjfAIDHRkZUX6+fiOA9D19+v3SPqqsfAp3d1tmDqRQUCq0Zh9+OA1bt6ZopSUUGuPs2f5ISirn0Sf6XkTensEQkHz++QkuIDyHl5zzfvnLydi9+0f4+trB3t4aiYmaneBCQx1RUNDIWvHzswf5HQjd3CorfeHi0ghLS1l9VYUOY0rDPGbMEQXvezJJlEgscetf1mDRHz+FtZVD9+OFhTPg6FgJV9d8mJmpVmU7OFihoQHIzZ2BkSO10yBkZi5EbGwPNfSUKd5IShq46BdSLSckhCnYjw32K9FjwxRCt3nzBPzXf1E4qhkWLgzC8eOF7DASE5Ghx6EINrVxYyx27VKdmMsY/euzD9KkUciuvJCDbG/h383NFmvWROPzz9MxZYoPGhsp94phLkwzZ/oyLZIhTE36xIy3xRGQI/BcQBB38xxusHl52eDRI/3aZQsLJyMkRNipUY5xYuILcHPrREREz0Gemzsfni8exOXFH+An+3cjKtIPly71pOqmrI+ZmfMRG3taZZbGd94Zg08/LUB1dSR8fdWHQvZd64sXl2DOnOPDbQsYdL4UrhkVJUV2dgM2bRrNfB4uXVJMyES3ztu3K/HCC8FISipDUZFmu3zfQVM/8+b54+bNqmHDgCnH4P33x+H48VyGW2SkE5YvH4k//1m7hFMG3QS8cY6ACSPABIQzZ7iAoGqN5szxR1ZWDVM/iil0O1y7NhaffJLK1Kvvvz8BW7em48mTNqbGJA1FWtokBAVpzmpYWDgdgYGpKCyMh4dHERwdS5CbOwdeK7/E5Zm/w9uH9sLH21nJlEE0ylVVEWhutkdYmLIg8uSJO9ranCGVCifYUTXXCxeWYO5cLiCI2QfyOmR6KSwU1hT1bovYNknDc+WKYsIpYve8d6+B0XhTuKwm05eq8VGyp5Urw1lUhrYOeNrMV15XXyROr70WhczMSty5o7sfBeHWO78H5YVQFZmiyzz5MxyBoY6AZMuWE11nz4p3thvqgPSeX3y8L7Kzq5Xsj0RNTIe9qnwEvfMUkJMYeTcTGx6FdpG6c8+e0YiOPqsEI9k/ExKC8e23Mq/zkpKpCAi4ga4uMzQ1eaOkJBrh4TfQGJ2Ny1P/H5Z9tR3m5paCy9Hc7InHj4MglRbBzq6yu56/fywKCkpgZaWdbfjChcWYO1e830J0tAtyctR79w/kXqKDg1gyMzIMJxyvWhWOgweHV4rc0aNd4eJii8uXlRPA/epXk5hJiOz8QmXevCC0tLTh+vWHiI6WYvHikfj00xSTtdu/9VYstm9XNMdMn+6HR4+amGDHC0dgMCMg+fzzk1xAAECpXynPQWqqZvvjlCm+TEPQ97YnZiMkJ7+AyZOVBQQ6sMg5TJ6lsbR0Cvz9k+Dra8/ivN97bwSCg0vQ9WIS0qLfxEv792jsjhI8VVdH4OlTW8a3YG7eCjOzaHR2igt9k3dAvg937szE6NHi/BbolkY8ApQ1T1NxcbFCRwfw+LFiqOi4ce7w9nbAyZOq8w1oalfT9+SdPmqUO374QXP7QUGOKCoSpwno2y9xCNy6pXlPaRovfS8TalyQkdHTHtnNq6p6UhSLaUfbOsHBTvD3d8S1a+KzvtLviWz/lNRMXkiw1hQSTOGPvW30UVGu3QnQVI2bkqJ5eJBpTVjQI78DWsP8fOMc2BERLqDU0Xv2qKYy1xZ/Xp8jMFAISL744mTXmTO6q/AGauD67pdIUyhLoxhOfV37pmRK6ekTMXlyT3RCX6cpedtEtezvLzMR2NiQBsEFM2eWo2tqNf6z8g0sOXgYVlbi7NHEvfDoURTTJrS0eMLT845WU5AJCDMwerRy2KVWDamovGBBMEaN8sBf/5qq9G1fb39y6vvFLyYwhzJ5joj+9q/peQoVpfj1EyfuIiNDWdNGxEqU4EgoCdPPfjYOu3ff0XgwahoHfe/kZIWlS0fg66+zER/vjWfPuljSMLpxa6JvFtM+JRwrKFA+RElIJYH4wQPlZFZi2jVkHXIKpsRU6ek9WrK+/dFve/PmOPz97zeZNo8iiijHBwmlb78dC09PR/znf/afKdKUHE0NiTlve/ggIPnii1NdZ89yAUFoySmaoaWlE7W1MmfFDRtGMkcyOTFLbKwLfH0dcPq0ou1YVXstLS54881Z+PrrI+xrUscS6c7+/Yo3bSKOycqKhqurzJGwvHwcfHzS2d9l827hpuQzxO1Ig5VVG7y9xR/2lZWhKCuLRkwM5XJQTvkrhEFHhyXu3p2GUaP6n4tBVR/6ynI4ED/bhQuDUVBQj4KCx9i4cSS++iqLHULyIiQAGnqsumTWJE6DAwfEcxD0Zw50mK5cGYbExAom5BC1t7EKCaVkOuwvv8GqVSNw7lwRGhpkdOlxcZSi3QlHjhQYayq8H46AQRF4LiCYrq3YoLNX0zj5GFAZP96NJQa6cUMzyc2CBf44fVoWVUC33xUrQrFnTw8Nb2OjF+bM8cHNm+ppYbdtW4533qlEV1ciyOkwMXEapk+XaR0KZ19DQcc5zLv6ezQ3e+HevbGIjT3HQhvFJCQqKopHba0zoqKSYWNTK+qZ9nYbFBXFISwscaCWY1D0O2KEA/LzB55Uh8LpJk3yw8cf3zTp9NsREY6YPTsYO3bcET3OsDBH3L8vM/cI3djp36kYOmx0yhRPJCUJay4Gxablg+QIqEHguYCgncPacEA0ISEQlDDnzJkH+PnP4/DJJ4pUtqowiI11RmamDEs6rGNiev6f/q2qKgDOzrWwtFRvGiBnxtLSGHh63mbPSKV1sLKSHTyFS66hoPos5iX9B/v/zk4LPHo0GpTXx89PpmVQV3JypiIqKhGkzSgoiEN09GWYmalP7iQTEMYiLIyHh2nC1xS+J+E2JkaK+PgAnDiRj9JScVE4pjB2TWNYvz6SCd0kjC1eHIG//U15zy9fHsLMPufO9YQAa2qXf88R4AgoIyD5/PNTXefPG8d5ZzAtAB3SlEmwrU217tPe3hwvvxyFnTtlNMeensTGJmP1s7U1R3CwI3JyFAWvgoJIhIaqTuwTGGiH4uIetX9lJQkId1BURGGRKd3QZS36HvWPCrCy9F/x1ltxOHIkh/VTX++LiooQBAdnwcurGR9+OBm/+50sVbO8kDCRnT0eMTEy34bWVns8fDgS9vaVLJRSqFC9qqpw+PlpnxBHeM3luJpAHubBtDG1GCs5gIr1TRg/3h15efWMKEhTeeONKBw4cB9NTaozkdLzrq5WqK0Vn6NEU5+qvldnmtLWHyAmxgUlJc3dviKzZvni8mVlkjTK9Dp2rAeOHpWxiPLCERjKCEi++OKHrnPnuAZBaJHJq5o8snsTEsnr9vZul99s6Dt6ZsmSEBw8mI8JEzyQmVnLPLPLy8fAx+dHlV2tXh3GXrryUlkZDVvbOlRXuyMkpMfPIGvl92jKKsOMBx+wREGU4KapSZ4p0gJlZTHo6urA7NlFzC7eu5DWoKHBG15ePVEMJDTU1/ugttYPISHpLNKhb2ltdUBV1Qg9CwiG/VmRX0h4uFRluJ26nqdP98G1a+UGHdybb47CkSP3UF9PPiQ2ePhw4G/45Ftz8WKxRrt8732uDiTaz5QWPS+vARERUpBPRHa26b5n1q2LwOnTxSxjpbW1GcaO9cTZs5r9ioQwMIaAZNBNyhvnCJAmfOtWEhC4BkFoN5AmYfx4LyQmKh8aFOtPntBlZcImg7Vro/D99/eZyrOuzg/19Z6wssJzOuROtLU9hbV1O2xtn8HK6iksLZ+yQ7qqKhK1tXYID78DM7Oem9qll/8D9sk+mFj8juAGbmryQGlpOAIC8mBv3xP+RT4QROHs7KzI1kcNtbbaoawsCra2NfDyKlLwTdAkIJBKmw7j3FzTOQAoIoW82+/dUxzTkiXBOH5cOLRx4kQvpKY+wsKFAYzkyBBz8vCwRlXVM5AD45o14di3T/t00eRnkJZWKRg90d+3G5nIYmPdkZtb129q4IAAexaiScICFdKwTZrkpfKGTt89faq/rJdubtaYPz8YJ08WdDsTqsJm2bIQphWIiXFFSIgzjh3rn6Phu+8SXXW2yfI39Hd/8OeHBwKSrVtPcwFBx7UmhyliSSwv152OmSIEOjps0NIixZMnjqivt0dHhwVT/9NL2seH1JxPYGnZAmvrNiRt/BAON7wxqWwzJJIejvm+UyCCpeLiWNjYNMHD4wETSKqqAuHk1MAyQAqVmppQPHvmxHI60LNUaGyNjd7w8FB9kJE6d+pUb1y9atibt47LpPDY5s2xOHtWXIrdvjz+Yvonp1ZKG00ajN4OqmKe1abOrFl+7IZOZF2EPwlEYs0JYvqhvbdgQRCuXi0ziBAyebInkpMVHfxGjHDC9On+2LlTv/wBc+b44e7dGpW/U30IJC+8EIDc3BoFE6EYjHkdjoCpI8AEhPPnTS++2djALV0ahDNnSgVvS2LoY0NDHVBc3KzSI5vyOkyY4IkTJ2S3d0tLiaB/A31/8+YCjByZCjs7WQgqcSg0N7sh9Wc/gfkPk+F06o+wsOiCs3MTHBwaWO4Fa+sqmJl1wdy8kwkP9CHhIytrCqKjk1FU5IOICErmJAE5VP74o3D0SmTkfGRk3IaNDSWXcXwuIBgnBM7Ya69Lf+rs3w4OFt1mH13a1vYZuiVTRtE//7nHV0XbNtTV19aer8++VbVF0UIVFc1q96+YMRCHwrJlYfj889uC1ck0QmGr5AQsVIKDHfDgQRMT6EmofPZMTWUxA+N1OAImgsBzAUE3ljgTmYNehrFyZTBqap7iyhXV4Yw/+9kYdrNpbJSp+8l2XFEh0xyQR3V0tCsTLm7dqmbqY1VF/gwdzuTotGePMNNgTs4MREdfVWrmwvr/C9frERhbsEHpO4o2aGuzR1OTOxoa3NDcbIvGRhs4ODxDW5s5GhoskJBwAkT+s2hRIL75Rjgfw9KlgcjKMsfRowEICclEe7sDpFLdbbJ6WSQTamTjxkjs2qW9acCEpiA4lNhYKTIze7RM5HdAaYrv3XuMCRPcQIyI589rry16911KkZ6rIDyNGiVlv4V9+8TnBomKcmRjv3tX8b1FvgMvvRSK/fvviw6b1LQeq1eHoKLiCa5d0xzmTBwIr70WiT//OVWtQKGpT/49R8BUEGBOihcuiGPkM5VB62McwcF2cHKyBlG1njlTBsp4p+qWsGpVKA4eLICjIyXLaWd1oqKcmH378mXZS5JujPSRCwyaxkc3DXqZEQETFT8/W7z4Ygi2betRrRYWTmBj6l1aWy2Q9+9LYXtiLgLSfyXYTVsb3WLM2fdkaqBPZ6c5I6OxtFQUXqqqLNQOl0wgLS22WLDgOuzs9EMZrAmf/nz/wQej0d7eiS++UCSQ8va2xosvhmLHDu1opvszFk3PEg8A2fkPHhw4j/i1a8Pw/fdFCmaEKVPccesWOdbK9idxepDzHmkSfH1tWYbT3tEO7u7W+M1v4vH3vyejuFjY4ZKSmdXVtTBqbXmxsTFjvhjqoifefHMkI3B6/Fh9hIW5ObBsGVF8F+ntgKbfaXt7lyhOBcKHTBZyp2FN68+/5wiYOgKSrVvPdF24MPDkLsYGatWqEBw58kDjD78/PPzazIlelJR1Tyq1wMOHMs2Ej48ty0RH3u7ycu7t38L79DjElKzRpnm1dSnTJGk34uP9sH27LvZf0wlZJBwdHCxRXa2sxZFKLbsd1d56Kwrbt9/ViCEd4nR4lZfrP9KABEUyVfQ+UNavD1erWVI1YDIxUEhjfr5hNYHe3rYsPfWlSxVKwyAhoaZGhrm+WREpbwaZFIRCjjUuYp8Kb70VjQMH8tU6LWrbJtXXxWdFl374MxwBYyEwbAUEXQH29LQB+SOQrwEVyg8gf6nT4SR/2dNtYvx4D6SnV7MbrVB5/fVwHDpUgCdPOrBgQQCsrCQ4dkzmpzBzpg/jjL97t0fde/bdf4Hf0ckYWb5K1ykY9LneppfeHW3cGIFduwafD8OmTdG4f78eV65or1I3JNDkdX/6dBG75VM+iPBwJ1y/rlkNLmZMtKednCy05jGgA3LhQn8cPaocJRMSQj40bd1cIWLGYag6NJbCwiaG27Rp3jh8uJCFYpaXP+k2IerS97JlgSgpacStW5yZVhf8+DOmh4DkH/84Oyw1CLouBYXzkQ1fVdbHpUuDUVjYgDt36ljcN4WikWd/W5uwgECOjQUFMg0O8Sc4OxMzomofBqpz+qe/RtChGYiqWK7rFPr13KxZ3khKqlLpzEm32IQEf+zf378QsX4NcJg8TMRGWVl1CmF0dKiTA2pvjZMucNDBuWpVGDPTxMd7Mb+a/oYeUtTCo0fNePBAP+bMoCAHdqBTxsi+N3fyD6GQRU1RHRRuStomEhbGjnVDUVGTyhTuumDIn+EIDAUEngsI+vnRDgVA6GVDB7q+1aSasBETJcEEhJ9/iKA9sxBVt0ywyTffjMSOHYZxoJs71wfp6TWorzcsS54mvIbq96ShmjLFC0ePFrHQRbKBCzm99sVg4kQ3xjcg5Gjbuz75t9jbWyrdmPsmeZoxw4tpwZqbO0A370ePnjJtl6pCYzWGBz9p5zZvHol9+/LY+Gm/HztWiKoq2Z4cPdoZ9+41ahRq3nknGl9/fY/7DAzVHxOfV78RYCaGS5f0b1/t98gGqIFNm6IYo9rDh+KzHepjqERf+/BhY7fD5Jw53jh/XtnWe/Lnv0D4roUIb1gk2O2rr4bh2297WBn1MT5TaoMc0TIza9jNbyCLPDmWGGGy7y2Xno2MdMLdu48Vkg7Z2ZkzmmLKnzBxoitKS1vYTVmXQn0Ijc3Hx45ln/zv/5ZlDKXi7m6FFSvC8OWXPY6cvcP8Ro50Qna2cEj0a6+FwcPDDp98kqnLcAfkGRpzcnIFCgqEL0nqcByQQfNOOQJGQkDyj3+c67p4UbcXkJHGaNRu6BZEGgR1cc+aBuTlZQtz865uZ8OxY12QkaHeLklsc8SweP9+MzNPxMW5IjW1Rqmrk//n5wj/bBHCW4UFBE3jk38fF+fCVNJpacLpvl1dLVFbK8y5L7YvfdYjbQv5dZB3+UAWSvUdHu6MkyeLWGKumzeFcXz77SgcPlyAmhrZLZcEgRUrgpkg9/rrEbh0qazbr0Ufc6J1o3TK5Igpj4bpu6f7Ci1UjzQQFK0jLySMEZtkbq5mtlXi9iAnxjt36o2ugdMHZkJtkJ8QrU9pKX9PGhJn3rbpIfBcQOAaBLFL8847UYyqVx5poOo5CgVraenodvJatMgXZ8+W9+tAI6Hh7bcjsdZ1PgL+vAwh7QlihyxYj2zWdIt1dbXB6dPKiWkoI+Ds2f749FNZQqq+Zd26Ecy7XJeY+CVL/JGVVYvCQtlLd+ZML2Rn16K62rjCSHy8BwvjO3NGef6aAKaQNgrRo4NxyhQPnDhRhp/8JBp79uTBz88GeXniTHcUIkv7RZ8CD42JolMoJHHSJBfk5jbp3WtfHT4jRtizSJL6es3JnzThrMv3ZAqjZFFEtU1Czjff6O4X4+ZmxSJZyN+BF47AcEJAsm0baRB0pwoeTmDRXCmLI9ljqWzcOAK7dokneOkPVmR3pdC81zwSEPSH5QiV9F9AkI+nx3ZMN3LF7Ipyj29VYycb+ejRLrh2TZEyV8w8AwJsUVb2tFtTQ3bklJQK3Lmj+aYqpn2xdWh+Li42zM6uj+LjY8MofRcv9kdSUmW3xkCXtolQi27ura0yTcnataE4c6bEKEIUqdVJADx1qljrOTg4mOOll0JY4qeLF5XNZLpgoe0z9DslgYsysoaFSZUyq2rbHq/PERiOCHABwYCrPnq0K3sxqYtiENs9vbAp4uGjVWsR94dNCLCKF/so/P3t8PhxG/sM5hIcbI+AADsWRkbq8idPBuZ2aiwMX3klDMeP95AYyYUPef/Tpnkyc0BGhrBpo/dYX3opCMePl4i+CZNPQkNDm974B4yFG++HI8AR0A8CLIrh8mXuka4tnJMnu7GDSp3acfZsWUggqY+pTJrkipQUcS9zofEc+c1biP/9r+BlO0r0kEndSpkJB9qpLzLSER4etsjKqtcYgqZqcjImP0qEZA83NxucPFnKqpHwtGHDCPzzn4UMa1L9k4+Cvoh1RAOth4rOzpb9DlOUD6Mvs19fJ8OFC31x/34D7t0TZwrRZnpk4qBCa0DjIHNHVZVqTeWcOZ6ws7NkJhpeOAIcAdNBQLJt2/muS5eE4+5NZ6j6H0lQkB0LcZI7jmnTw6xZnrh8WVm1Tr4CgYF2Cl7Rq1YF4vDhYkya5IakJGXHQ3m/dNDRy1SdLfrAb9Zh7u//AFfbEI3DHTnSkVHfGpP6VZ6EiuZBH1UC1OrVQUhJqVRLy6txcn0qBAfb4sEDmS/NG29E4Pp1yh2gyCxIY5s82R3Xrg0cZTTtD3IMFRIsf/rTkdiyRRc2S2XEKDvi1Kme2Ls3H6+8EoLvvy9WCFEkUi65+UIs3mSO+vWvx2LLljtqhbyZM70ZPTMJyGSK2rQpEp99liW4t4lkTE49LjQWITp0sWPn9TgCHAHtEHguIAxPDcLo0VL2kisp0Z+TJtnWiRTmwIGi7pWIjnbA3btNGj27iTJ35cogfPmlMOPggd+uxbx//yNc7DULCFFRlGXuicYXr3ZbRri2r681Fi8OxrZtuSxmPizMAefOKdug+xs2ZmtrhqdPhR3GiJOfwvv6eu1T2OD06X746KOBC8OjiBYXF2tB2zyNvXeuAnVrExpKgqiwZz3hLD9USXuTm9uocQ9q2gvUJkWR0OGvbpw0DypURz4OsfNSNQbyx4iKcsb+/Q8wYoQdEwbFOnXSfvHysu4WIDXNkX/PEeAIyBCQbNt2gZsYNOwGunkS+UpamnKo4oIFPsjLa+j2xieh4+HDp6iu1l7okoWZ9ThBqhrW/l+/hvn/8T+Q2vtp3MMy1XsYTpwoVZmbQGMDOlSQ3wQNdduLiHBgTJbkKEoHlboQzb7D13R712G6go/Mm+eDhoZnKkMfe5MRLV/uj5SUGp1yPcyf740zZyqYVoTCJi9e1A/Vsj5x0FdbFJJJGilidBwzRsoEX/KPEFOI4TMuzhkXLqh3pn3llSD88589gr2YtnkdjsBQRuC5gCDuhzaUgVA3N0ryM3++Dw4eLFa6lVKWQHppNTTIHOZIkKA8Df2luxUaz94PF2Br2jnkZluI4rV3dDRHY6Nq5jtt1vPtt8Px5ZfC6am1aUsfdSk5UGdnl9b5AvTRd982KNMnefxv23aX5UQgYiPSYOiD9pj68vS0ZtEz8pBQVYIPqf7l0TWGmKMptjl7tidKSp7g/n1FwqzoaEfk5Bg2cZUp4sHHxBHQNwJMQLhyZWh7g+sbNGovIcELmZn13XkTNmwIwe7dhk3bS85cb04ei3/9+ghqqx0FKW9l81UOWaQogI6OTiWTiouLJTw8KG5f/UuVyHf8/e1x+3a9ISBVaPOddyJw4MADowsAtK5EeKSNgEcaAYowIFMV+abk5DSIEt7kEyZfGAqNFPJLIPNAfLw3du40HQHNUBuAuDcaGpTNfqQhIe2aJn8h2qN+fnbIzFQdLiv0OzWUxstQOPF2OQLGQOC5gND/G6YxBmtKfQQF2aKoSHvfBTpMZJnytNfaTJlii/fnTsdL//4t7G3dBOBQFgzkFWNinJhN+vZtRbpc0oIQkyMJPJocxWJjHZGZqSxI2NnJnMx0ZaBcuNAb2dkN3Y6LHh5W3dz6NH4xTmz62B8BAXTQ93jbU9SEOlIsXfqUCRS27PZLZckSPyQnV7OcC2S7J+2IuoRduvQ5WJ4hQYvwIWGLtCa0X0kDFhnpgKgoF3z/fYnepzJrljsTRDMzhWmk9d4pb5AjMAgQkHz55cVhqUEgO/bs2R44ckR/oVX0YiPVckeHMAUwJeNZsSKQESzJE9uQKprU5ZpKa3szDv7Leiz7wzbY28kEBGLhExulQAQ2mzZF4O9/7+Hal/dJB/LSpYHYsUM34qfXXgvChQuPGHOfqqLpgKexNTV1MGcymk9vdXl/x6YJ177f9/buX7rUD7du1WLECEdcutRjw6YbrVDSIk390bOzZ3vh5Ell9kYyZ736aii2bjVMsi1NY+v9PR3QNEcxuSaE2qVbPxVdskGOG+fMMpwmJgpH/qibD4Ui29hY4PLloeuboc168rocAW0ReC4gDD8Nwtq1wbhxo0pv6WcJeHrpP3vWgcRE9ax8c+Z4sHW6eFEWbvfWW+RIWIKKCu0dG9eupZDBKuTnmw5PvFRq0e2TQfMLCrJBQoIftm/XnECKDkgPD0ujzWfRIm/8+GO9gpZg8+YRyMurQ0pKXXe0hLe3lcL6/P7341BS0iBqTmJ+lLNmeaG+vgU//mhcJkmhsZFD4Oefz8K//Vui6GySqtpavNiPHfKHDhWLgUFtHfKnWb48AHv3PhDVlru7JfMDqazU/nclqgNeiSMwxBGQfPnlpa4rV4afgKCPdSVTwbvvRuGjj2Tx3eQoRpoATQQ9GzZQkp7ibpuzprA9dWMVChmkG/vrr5NfRIHWse79xWbxYm+kp9eivLznxaxLzH1/xyH0/Lx5nsycUV7+jHn/k+2/d8gc3ZynTHFFUlKtoOMfrZnsZqyenz8szA7372sW3mi9aO8QLwGNiaIb9u8vFh3Kp2+saMa5E1kAABThSURBVF+RSYqyHGrj/BgSYovoaClOnpSFt5JWTV8OlGRuIGxI08QLR4AjYHgEmIBw9SpPQqIL1MR69/LLFPevnfMY2VkrKlrUqm5XrvTD4cP6M3/0nt+aNYG4cqVCSWNBSWmWLvVnQoUYX4KZM90ZjXRiYv/YIXXBXswz5LBGBy+Vhw9lZGB0YM2d64Xi4ibGTSGmkJbm4MGSbpOQmGfkdWRkXG2oqRHvc0K3d6LHpmgYMep9cqwkMwiF41ZVtTLuAVPMwkmYrF4dwDR35NcxbZo7C1mlNbp8uUrvobgyjUMQUlMrWbIqXjgCHAHtEJB88cW5rsTE56wm2j3La+sJAWIBJCepx497bkZ+ftYoKxNmuCT1qa6ZDydPdmE5DQ4c6BFA3NwsmXCQmCizs+fmaqbf1VUrQAROdIDduKE+Bba28P70p+HYtes+mps74eVlhenTPZCaKhNeiFFSVXn99SB89x1pczT7gGg7Hn3XJ1NNUZGyj0dgoC2b3/LlPjh7thKenpbw9rZDYWEzJkxwxYkT5ToPRSo1R0OD/m7s9vYUjim7kJApydHRSoF1VNuBvvpqIK5de4TSUuXfCml5aP5Xr+onEZe2Y+P1OQKDHQHJ9u2Xu65eNf2XoyGBplslxbLX1am/5U2Y4MycAslOTLZNTSFXYsc8bZoby5Mgv+UqPydfn55Mi2vW+OO772S5CLQt5Di2dKkvDhwoUdAUODtbMHUwlUePdLfbklMhORoKqd/pxU2hlfHxbjh4UPs0y0LzdXOzQE2Ncsju6tV+uHSJbqjKcyJWPiH/Dbr9k9Nl38iO118PxKlT5VppBbRdI1X1160LxL594m35dDOnhEulpbpna12/Pog5U2qjAaGxBwfbsWRaRKu9ZUuPhq0/5jRVmOiL50Mf68Pb4AgMNQS4gACwBEBTp7rjwAH1By45tFVWUo77Vsbqlpc3cGpLYhSkw7xvaBYdChYWZt2RDfT/Y8Y4ITnZ8NwF8h9HQoIn6CA4dszwqX41RUeI/cGSxuHFF32xb19RtzZh1iwPxvmgSXAU2wfV682iqM1z2tT197fGhAluOHJEJnxRhMiIEfbIyBAO44uPd4WXl63aqB4yQYkViimqJTTUCRkZ1QoajI0bg3H2bAUzMZCwTX4Fjx/3CHXTprkiNbWO/b7IvKIp7FYbXHhdjgBHQDsEmIBw7Zp2Dw2X2uSoRUWMHVhXTMQQtFBUwKhRjgoqeScncwWThLx/yjdAtLTXr/eoVSMi7JCXp9lRTtc5qHouONgGDx7ofnOlNqdOdWVcAcRLQDdhchw8flxR6Pjgg3B8+ql4HxDCRoiQKDraHjk5mk0r/cFp7dpA5Oc3sgiJ3oXyWFRUPBPl+6Gpf3LCpL177pzMXESHLZknCgpkZpaxY50YF0ZfP5MpU5yZrb6+vl1pz9N+W7OG8oQUsDaofdpXubm67yvSyBGhl6WlGXPkJOF71CgHZGU14YUXPNHY2IqkJOMJtppw5d9zBIYbApLt269wAUFg1ekm/PhxK1JSDPOSotC5efO8sG+fevIXuo2TT0J+vmZiJmMINcb6kdBNeN48b+zaVcQOJFWZLunf1PFO9B3rqlVEma27TV5o7hMmOOHmTc1EO56eViw64MIFRbv4kiXeyMpqgLW1hN2oHz7U3cRDQicVIUfTwEAbZnZQ9f3Klb7Iy3vMDmkqvcM7e0fM0N8zZrjiypX+O6iGhdkyh1ltoiWMtQd5PxyB4YyA5MsvL3ddv/78jTKMkXjjjSDs3KmYqKV3TntDQEPtL1rkhaNHDa+Kl4+fhI01awLYoSsvdLscP94Vhw71+ANs2BCE7Ox63Lw5sHH5dGA+eybOR+aXv4zA1q35Cr4PkZF28Pa2weXL/T/IhPYAsR8mJHjg3Lkq0ZkYhdqaOFHKMmF+910ZaE8eO/aQhfb1Znc0xF6Ut+njY81ooynLKaULp9v9kSPa708SNA4f7tlPY8c6Iju7Cf7+NoiIcMQPP6hPnNSfOb70kg8OHSrHsmU+LLV3bS2nku8PnvzZ4YsA0yBwAcG4G4Ac4yhNr5hQQvnI6OZ7/PgjFmpHdMf0Ej9zRka01LcQGyFxNFAf69cH4ttvS7ptuXSY0bO9HdfGj5eiuPgJqqp6nDRJkJgzxx0nT8rV1EBIiLBDn6pxLFrkAYnEDD/88EjtXF95xZ+ZRFQ504WH2zHVe9+EU2QzJ/8AuUc89d+fyA7j7gDF3saPd2YRB33pt8l3gDJW0npmZek/+RDtBcqMmJHRoLQ+pCEgZ1NdSYbkkRXymU6d6sLMF6QlkDtOkuls+XJf7N2rnARNH+tBYyAnU7ECpj765G1wBIYSApIdO652XbvGNQjaLuro0Y6YMcMTaWnVSErquWWTk1VubqNSCOLatf74+utS0HMUerVnT7EgoZIqv4SRIx1QWdmC6mrZbWjyZGdkZT1GU1MPh8Xy5V5ITa1nQoS9vYVgaF/fuU6f7opbtxQP2751iDyIogGuXKlCYWGPqYPUw/b2lkr5Heh5CoMkdbqqA6h3+yQwkfNbXZ3yTY/GRsJLSIg9Ll/uodwlweHePd3t39qutyHqy81BAQG2LDTRy8sGJ04Y7mbddw60PmTrP326csAImVThSn4IpMnw87Nn5rfeJFZ967u4UPQR1xAYYn/yNjkCTEC4fn348SAsWuTJVMJ9WQ/HjXNiN1n5zUmIcIZu10FB9jhx4mH3zZteuNHRDigqeoL6etWx4xRKGBpqh/R01fbq0FAbjBolxbFjivzxZI5YudIH330nU9tOmCBFfj45lGkfo06hYWS3p7GSDT8lRbUZYdIkqcJ3UVH2LNqDzBNExiMfh4eHNU6d0u1gIzwISzqknjxRTdhFkQqRkfb48Uftb9F0CC9Z4oXz56sE2zfka0AdYdGSJZ5MeJLH8KsK2YuLc0Jenno2Q9obtI5DzeOf9tvdu+qdRtevD2DRGvpIaW7IfcDb5ggMRgSeCwgWg3Hs/RpzbKwDu4H2fanGxDgwAYE8uals3OiPXbvE8Q1Qm8HBDgLhfTI7OrEvkong6lX9kgTJwVi3jkL1VHMLEA0u0flSWCcl4dF04I4Z46hUh+aYmSlzYOubc0HdglBIJgkldBskU8DChV7Yu7cU770Xipyceoa3ujA8bRabVOezZ7vi/HmZ3wGt6Z07AxOS+sorvsxT/8gRmXlI2zJxohNycpoUNEV923jhBQ+Ulz/BnTvaRWCQVkgfjoEUukmfoSagaLtWvD5HYKghwASEGzeGn4AgdiHffJMyHIonpxHb7kDUI7VtR0cnKivF0/6qG+e6dX7Yt08cHfS8ee4s90F2tjgtAEUw0HhTUzVHBqgaY0iIDQoL+xdmqWmNSFgiquCrV9U7QBpjLJrGqup7fe1tMp+RJm7/fnF7wdWV+A8kOjOB6jJX/gxHgCOgPQKS7duvdiUmWmr/5DB5whjENvqEkl6+pLI/eFB7z3Ntx2FnZ6agtqdDXRXlLbUrS4XdJdrLn8w15KRnyh7opNonE4YxaZoJx9df98c335T22/lOl709Y4YL0z6lpfUIbuQzQzjIzU6a9hH54RB2vdvQJlpFU/v8e44AR0A/CEi++upa1/XrXEDQBc7QUFssX+6Hv/0tX6uIBF360uUZegmvWeOD/fvLDXKIvfiiO27detydtfG113xx6VK1QhZHXcbNnxkYBGTJjbyxd6+wJoDMQ0+fdihEj1BOBYpM0JVkavp0ZxQVPUVJiXDukYFBhPfKERjeCEi++up6140bXEDQ5zYg1jlyKBTruyCmb7Krv/qqP44cKdfKbuzoaIbGRs22by8vSzx6pB/Tg5j58DraIbBsmSdjX6REWydPKjvXateacG1bWwmePhXHOyFvhTQ9lMuETEi8cAQ4AkMHgecCgtXQmZEJzMTCAqDbWF2d9hEGQsMnNe68eUQ9/EytZ3d0NCUYatVaNT9/viuSkxv0mrnPBJZi0AyB/BkoEiEjQ7WPRny8FM3N7bh9WztHxEEDAB8oR4AjYHIIMAEhMdHa5AZmjAGRapTIacTaTsWO6aWXPJGUVIeHD5Vv5GT3JQ2DOtv6ggVuOHu2RqXZIiDACiUlwjS8lAOhra0TZWW6U/WKnSevp18ExGp7dO2VfEYokkQTcRAJo2PHOuDWrSbmW6ANoZeuY+PPcQQ4AqaHgGTHjmtdSUm2pjcyI4zo97+Pwv/+b54oFbzycEgN25N+WexwyYlw3DhHnDsnHOY4frwD0tIGJixP7Dx4vYFFgPxL6LDX5vAmDRSRXMmTNqmbwYIFrsyxlLRRN2/KtBozZkhx9erAUm8PLOq8d47A8EJA8tVXN4atBoE85Y3pgT68thafrSER+OCDYBw9Wo7iYu3s/vKES8RASBEJR4+qpuumsZOpjDKZkoaNnhsxwgb37slCR/38LJkJTYjcys3NgnFu6NPMZkg8edscAY6AMgJMQEhKsuHYcASGLQJ08FH2RKHDbigCQ9oBSmSVlaWbT8PUqcTw+FSQyyAmxp4RQ3l7W6OsrAUFBYblpBiKa8TnxBEYaAQkO3eSBmF4mhgGGnzev2kgMGuWM1JSHitkgTSNkZn2KIgAavJkMjvUMyrsCxeUCaNIU0GCQl/ha8UKD1y8WMvSW1Nisfx8ZQFi5UoPxquhK1mWaaPHR8cRMH0EJDt3Jg5bHwTTXx4+Qo6A4RGYNUuKnJwnWjNsjh5tz0Jjm5raGamVNmGycvOeh4cF0zJkZiprMlxdzVneErkPhOGR4D1wBDgCvRF4LiDYcVQ4AhyBQY5AQIA16urowFbPe+HubsGSG8mjGdzczNkz06ZR3ocnKC/nfBiDfCvw4XME9IKA5B//uNx165aLXhrjjXAEOAIDh8DcuVLExblgz54ytdqADRu8GQNmZqZiumyp1AwNDcrCBYU9JiQ4MyKku3dbGGV2O8+wPHALzXvmCBgJAcnOnUldycn2RurOFLvRLVzRFGfCx8QRMBQCwcFWzF8gN/cZNmzwQmpqA3JyuOOhofDm7XIETAEBya5dw11AMIVl4GPgCAweBIiDgdJ2UwiktmXlSjccPlyj7WO8PkeAIzAACDwXEBwGoGveJUeAIyBHgHJhEIHWqVPqU0f3Rox8Bq5f1y0dtirkFy1ywalTwgRefLU4AhyB4YWAZNeu5K7kZC4gDK9l57M1NQTs7CSwtCQfAOH8HaTip8/jxzI/gVGj7ED+AUAXMjOfaj0lSgA2apQ940IgMqTZs51ga2s+bIQES0ugjftjar1v+APDBwHmg5Ca6jR8ZsxnyhEYRAhMnOiAO3eaWYZFInSKiLBFXV07kpMb1dIsEwuiJkdCEhAmTXJEamojq0u5GqKibJGerht50iCClQ11wgR7BAfb4sCB6sE2dD5ejoBREGAahJQULiAYBW3eCUdASwTi4uyQm9vSTTREGoP4eAdcvy6cq8PZ2ZxFHRw4YBxbv4+PJaqq2mBmJsFrr3ng22+rNCaE0hIGg1UnLBMTed4TgwHMGx7UCEh27UrhGoRBvYR88AOJAOUoGDfODmlpiiGDAzWmgABLJkzU1CiaKgIDLeHnZ4XkZJl2oHeSJ9I2BAVZo7q6Xad033TIEhNiVRWPfRyodef9cgQMgQAXEAyBKm9z2CBAt+bRo+2QkWEaavmgICs8edLFbvS9i5WVGSIjrWFvb4GGhnbk5PT4LMTF2bP0zsXFLTh/nmdrHDabl0+UI6ABAcnu3aRBkA56oCjkim5zvHAEOAKUiVGCuXMdceaMuCgHW1szFrrY1qZD7CIHnCPAERiSCDANws2bzkNycnxSHAGOgHoEyCRRUdHGvfn5RuEIcASUEHguIHCq5aGyNxwdzdDYqJ6Lf6jM1ZTm4e1twbJBqqIqNqVx9h1LdDTlb+hARYX+/Af8/CwZ1TMPITTlledj4whoRkCye3dq182bXEDQDNXgqPHqq644ebIOjx9zVbExV2zyZDsUFz9Debkwj4ExxzOQfa1a5YKzZxu6+RoGciy8b44AR0B3BCS7d9/kAoLu+PEnOQIcAY4AR4AjMCQRYAJCWhrXIAzJ1eWT4ghwBDgCHAGOgI4IPBcQXHV8nD/GEeAIcAQ4AhwBjsBQRID5IKSnuw/FufE5cQQ4AhwBjgBHgCOgIwKSPXvSutLS3HR8nD/GEeAIcAT6h4CjowSxsba4ccM02Cj7Nxv+NEdg6CDwXEDgGoShs6R8JhwB4yFgayuBvb0ZqqvFRW+sXu2E06cb0dioGGXj7W0OyiHh6mrBBQXjLR/viSOgFgHJnj3p3MTANwlHgCOgEwJeXuaIjrbBpUumQTWt0yT4QxwBjoBKBJ4LCB4cHo4AR4AjwBHgCHAEOALdCEj27iUNAhcQ+J7gCHAEOAIcAY4AR6AHAcnu3WldGRleHBOOAEeAI8AR4AhwBDgCvTUIt7pu3fI0GCQ8y6LBoOUNcwQ4AhwBjgBHwGAISPbuJQGBaxAMhjBvmCPAEeAIcAQ4AoMQgecCgvcgHDofMkeAI8AR4AhwBDgChkJAsndvRldGBhcQDAUwb5cjwBHgCHAEOAKDEQGmQcjI8BmMY+dj5ghwBDgCHAGOAEfAQAhIvv76NvdBMBC4vFmOAEeAI8AR4AgMVgQk33yT2ZWezp0UB+sC8nFzBDgCHAGOAEfAEAhIvv02qys93XBhjoYYNG+TI8AR4AhwBDgCHAHDIiD57rvsrps3uYBgWJh56xwBjgBHgCPAERhcCEi++y6HCwiDa834aDkCHAEDI2BmBtCnvd3AHfHmOQImjIDk0KG8ruRknu7ZhNeID40jwBEwMgKzZ1uhpqYDmZni0lgbeXi8O46AURCQHDlyvysx0cUonfFOOAIcAY7AYEBAIpGgi3jieeEIDGMEJMeOPei6fl06jCHgU+cIcAQ4AhwBjgBHoC8Ckry8vK7W1la0tbWxT2NjIywtLdHe3o6Ojg4mRdPfcolaLlXTf+ljRoa6XqWzs1Pp3+jrZ8+ewdraWmNdep76oo+mdlX1pc24hPpqaWmBjY2Nxv616YtjIIOT7wOOAd8H/Lcgf7n2533Q2NQEaytrSMwUz4rBesx3dnbBTCKBmYHnIz9f6eymv83NzdmZbWFhwc5++tDfVlZW+P+qriiFIixEPgAAAABJRU5ErkJggg==;" parent="0IS2U3QtcljcEeAQ51mi-18" vertex="1">
          <mxGeometry width="520" height="296" as="geometry"/>
        </mxCell>
        <mxCell id="0IS2U3QtcljcEeAQ51mi-11" value="" style="endArrow=classic;html=1;strokeWidth=3;strokeColor=#FFFFFF;entryX=0.254;entryY=0.625;entryDx=0;entryDy=0;entryPerimeter=0;" parent="0IS2U3QtcljcEeAQ51mi-18" target="0IS2U3QtcljcEeAQ51mi-9" edge="1">
          <mxGeometry width="50" height="50" relative="1" as="geometry">
            <mxPoint x="110" y="200" as="sourcePoint"/>
            <mxPoint x="160" y="150" as="targetPoint"/>
          </mxGeometry>
        </mxCell>
        <mxCell id="0IS2U3QtcljcEeAQ51mi-13" value="" style="endArrow=classic;html=1;strokeWidth=3;strokeColor=#FFFFFF;entryX=0.312;entryY=0.676;entryDx=0;entryDy=0;entryPerimeter=0;" parent="0IS2U3QtcljcEeAQ51mi-18" target="0IS2U3QtcljcEeAQ51mi-9" edge="1">
          <mxGeometry width="50" height="50" relative="1" as="geometry">
            <mxPoint x="110" y="200" as="sourcePoint"/>
            <mxPoint x="160" y="150" as="targetPoint"/>
          </mxGeometry>
        </mxCell>
        <mxCell id="0IS2U3QtcljcEeAQ51mi-14" value="" style="endArrow=classic;html=1;strokeWidth=3;strokeColor=#FFFFFF;entryX=0.208;entryY=0.794;entryDx=0;entryDy=0;entryPerimeter=0;" parent="0IS2U3QtcljcEeAQ51mi-18" target="0IS2U3QtcljcEeAQ51mi-9" edge="1">
          <mxGeometry width="50" height="50" relative="1" as="geometry">
            <mxPoint x="110" y="200" as="sourcePoint"/>
            <mxPoint x="160" y="150" as="targetPoint"/>
          </mxGeometry>
        </mxCell>
        <mxCell id="0IS2U3QtcljcEeAQ51mi-15" value="Z" style="text;html=1;strokeColor=none;fillColor=none;align=center;verticalAlign=middle;whiteSpace=wrap;rounded=0;fontColor=#33FF33;" parent="0IS2U3QtcljcEeAQ51mi-18" vertex="1">
          <mxGeometry x="119.5" y="173.5" width="40" height="20" as="geometry"/>
        </mxCell>
        <mxCell id="0IS2U3QtcljcEeAQ51mi-16" value="X" style="text;html=1;strokeColor=none;fillColor=none;align=center;verticalAlign=middle;whiteSpace=wrap;rounded=0;fontColor=#33FF33;" parent="0IS2U3QtcljcEeAQ51mi-18" vertex="1">
          <mxGeometry x="-420.09000000000003" y="202.62" width="40" height="20" as="geometry"/>
        </mxCell>
        <mxCell id="0IS2U3QtcljcEeAQ51mi-17" value="Y" style="text;html=1;strokeColor=none;fillColor=none;align=center;verticalAlign=middle;whiteSpace=wrap;rounded=0;fontColor=#33FF33;" parent="0IS2U3QtcljcEeAQ51mi-18" vertex="1">
          <mxGeometry x="87.5" y="230" width="40" height="20" as="geometry"/>
        </mxCell>
        <mxCell id="8hChCW3FszteUkoNeu8G-38" value="X" style="text;html=1;strokeColor=none;fillColor=none;align=center;verticalAlign=middle;whiteSpace=wrap;rounded=0;fontColor=#33FF33;" vertex="1" parent="0IS2U3QtcljcEeAQ51mi-18">
          <mxGeometry x="150" y="190.5" width="40" height="20" as="geometry"/>
        </mxCell>
        <mxCell id="0IS2U3QtcljcEeAQ51mi-19" value="３次元復元の結果、向きがおかしいかと思っていたが、&lt;br&gt;上の座標系定義とするならばOK&lt;br&gt;あとは、EssentialMatrixを分解した結果として、得られる平行移動と回転行列が、どういった&lt;br&gt;変換を表しているかの定義を確認すればOK" style="text;html=1;resizable=0;points=[];autosize=1;align=left;verticalAlign=top;spacingTop=-4;fontColor=#000000;" parent="0IS2U3QtcljcEeAQ51mi-1" vertex="1">
          <mxGeometry x="160" y="1040" width="520" height="60" as="geometry"/>
        </mxCell>
        <mxCell id="8hChCW3FszteUkoNeu8G-8" value="&lt;font style=&quot;font-size: 19px&quot;&gt;カメラ座標系&lt;/font&gt;" style="text;html=1;align=center;verticalAlign=middle;resizable=0;points=[];autosize=1;" vertex="1" parent="0IS2U3QtcljcEeAQ51mi-1">
          <mxGeometry x="20" y="110" width="130" height="20" as="geometry"/>
        </mxCell>
        <mxCell id="8hChCW3FszteUkoNeu8G-11" value="$$\boldsymbol{P}^W = (X^W, Y^W, Z^W)$$" style="text;html=1;align=left;verticalAlign=middle;resizable=0;points=[];autosize=1;" vertex="1" parent="0IS2U3QtcljcEeAQ51mi-1">
          <mxGeometry x="178.66000000000003" y="130" width="250" height="20" as="geometry"/>
        </mxCell>
        <mxCell id="8hChCW3FszteUkoNeu8G-12" value="カメラ座標系における焦点位置、カメラ座標系の原点は実質焦点位置" style="text;html=1;align=left;verticalAlign=middle;resizable=0;points=[];autosize=1;" vertex="1" parent="0IS2U3QtcljcEeAQ51mi-1">
          <mxGeometry x="320" y="600" width="390" height="20" as="geometry"/>
        </mxCell>
        <mxCell id="8hChCW3FszteUkoNeu8G-13" value="$$\boldsymbol{P}^C = (X^C, Y^C, Z^C)$$" style="text;html=1;align=left;verticalAlign=middle;resizable=0;points=[];autosize=1;" vertex="1" parent="0IS2U3QtcljcEeAQ51mi-1">
          <mxGeometry x="178.66000000000003" y="150" width="240" height="20" as="geometry"/>
        </mxCell>
        <mxCell id="8hChCW3FszteUkoNeu8G-14" value="カメラ座標系における点の位置" style="text;html=1;align=left;verticalAlign=middle;resizable=0;points=[];autosize=1;" vertex="1" parent="0IS2U3QtcljcEeAQ51mi-1">
          <mxGeometry x="355.90000000000003" y="150" width="180" height="20" as="geometry"/>
        </mxCell>
        <mxCell id="8hChCW3FszteUkoNeu8G-15" value="$$\boldsymbol{F}^C = (0,0,0)$$" style="text;html=1;align=left;verticalAlign=middle;resizable=0;points=[];autosize=1;" vertex="1" parent="0IS2U3QtcljcEeAQ51mi-1">
          <mxGeometry x="45.89999999999999" y="600" width="180" height="20" as="geometry"/>
        </mxCell>
        <mxCell id="8hChCW3FszteUkoNeu8G-16" value="$$\boldsymbol{F}^W = (F_x^W, F_y^W, F_z^W)$$" style="text;html=1;align=left;verticalAlign=middle;resizable=0;points=[];autosize=1;" vertex="1" parent="0IS2U3QtcljcEeAQ51mi-1">
          <mxGeometry x="45.89999999999999" y="580" width="280" height="20" as="geometry"/>
        </mxCell>
        <mxCell id="8hChCW3FszteUkoNeu8G-17" value="ワールド座標系における焦点位置" style="text;html=1;align=left;verticalAlign=middle;resizable=0;points=[];autosize=1;" vertex="1" parent="0IS2U3QtcljcEeAQ51mi-1">
          <mxGeometry x="320" y="580" width="200" height="20" as="geometry"/>
        </mxCell>
        <mxCell id="8hChCW3FszteUkoNeu8G-19" value="ワールド座標系における点の位置" style="text;html=1;align=left;verticalAlign=middle;resizable=0;points=[];autosize=1;" vertex="1" parent="0IS2U3QtcljcEeAQ51mi-1">
          <mxGeometry x="355.90000000000003" y="130" width="200" height="20" as="geometry"/>
        </mxCell>
        <mxCell id="8hChCW3FszteUkoNeu8G-25" value="$$R^{WC}$$" style="text;html=1;align=left;verticalAlign=middle;resizable=0;points=[];autosize=1;" vertex="1" parent="0IS2U3QtcljcEeAQ51mi-1">
          <mxGeometry x="45.89999999999999" y="620" width="80" height="20" as="geometry"/>
        </mxCell>
        <mxCell id="8hChCW3FszteUkoNeu8G-26" value="直交基底をWorldからCameraに移す回転行列" style="text;html=1;align=left;verticalAlign=middle;resizable=0;points=[];autosize=1;" vertex="1" parent="0IS2U3QtcljcEeAQ51mi-1">
          <mxGeometry x="320" y="620" width="260" height="20" as="geometry"/>
        </mxCell>
        <mxCell id="8hChCW3FszteUkoNeu8G-27" value="$$\left[ {\boldsymbol{e}_X^C}^T | {\boldsymbol{x}_Y^C}^T | {\boldsymbol{x}_Z^C}^T \right] = R^{WC} \left[ {\boldsymbol{e}_X^W}^T | {\boldsymbol{e}_Y^W}^T | {\boldsymbol{e}_Z^W}^T \right]$$" style="text;html=1;align=left;verticalAlign=middle;resizable=0;points=[];autosize=1;" vertex="1" parent="0IS2U3QtcljcEeAQ51mi-1">
          <mxGeometry x="39.99999999999999" y="650" width="1040" height="20" as="geometry"/>
        </mxCell>
        <mxCell id="8hChCW3FszteUkoNeu8G-30" value="" style="group" vertex="1" connectable="0" parent="0IS2U3QtcljcEeAQ51mi-1">
          <mxGeometry x="395.9" y="260" width="488.19000000000005" height="120" as="geometry"/>
        </mxCell>
        <mxCell id="8hChCW3FszteUkoNeu8G-24" value="" style="group" vertex="1" connectable="0" parent="8hChCW3FszteUkoNeu8G-30">
          <mxGeometry x="163.19000000000005" width="325" height="120" as="geometry"/>
        </mxCell>
        <mxCell id="8hChCW3FszteUkoNeu8G-1" value="" style="endArrow=classic;html=1;" edge="1" parent="8hChCW3FszteUkoNeu8G-24">
          <mxGeometry width="50" height="50" relative="1" as="geometry">
            <mxPoint x="58" y="112" as="sourcePoint"/>
            <mxPoint x="28" y="92" as="targetPoint"/>
          </mxGeometry>
        </mxCell>
        <mxCell id="8hChCW3FszteUkoNeu8G-2" value="" style="endArrow=classic;html=1;" edge="1" parent="8hChCW3FszteUkoNeu8G-24">
          <mxGeometry width="50" height="50" relative="1" as="geometry">
            <mxPoint x="58" y="112" as="sourcePoint"/>
            <mxPoint x="58" y="22" as="targetPoint"/>
          </mxGeometry>
        </mxCell>
        <mxCell id="8hChCW3FszteUkoNeu8G-3" value="" style="endArrow=classic;html=1;" edge="1" parent="8hChCW3FszteUkoNeu8G-24">
          <mxGeometry width="50" height="50" relative="1" as="geometry">
            <mxPoint x="58" y="112" as="sourcePoint"/>
            <mxPoint x="118" y="112" as="targetPoint"/>
          </mxGeometry>
        </mxCell>
        <mxCell id="8hChCW3FszteUkoNeu8G-6" value="$$\vec{e}_Z = \boldsymbol{e}_Z^W = (0,0,1)$$" style="text;html=1;align=center;verticalAlign=middle;resizable=0;points=[];autosize=1;rotation=0;" vertex="1" parent="8hChCW3FszteUkoNeu8G-24">
          <mxGeometry x="-72" width="260" height="20" as="geometry"/>
        </mxCell>
        <mxCell id="8hChCW3FszteUkoNeu8G-22" value="O" style="text;html=1;align=center;verticalAlign=middle;resizable=0;points=[];autosize=1;rotation=0;" vertex="1" parent="8hChCW3FszteUkoNeu8G-24">
          <mxGeometry x="60" y="93.5" width="20" height="20" as="geometry"/>
        </mxCell>
        <mxCell id="8hChCW3FszteUkoNeu8G-20" value="$$\boldsymbol{O}^W = (0,0,0)$$" style="text;html=1;align=center;verticalAlign=middle;resizable=0;points=[];autosize=1;" vertex="1" parent="8hChCW3FszteUkoNeu8G-24">
          <mxGeometry x="43" y="73.5" width="190" height="20" as="geometry"/>
        </mxCell>
        <mxCell id="8hChCW3FszteUkoNeu8G-21" value="ワールド座標系の原点" style="text;html=1;align=center;verticalAlign=middle;resizable=0;points=[];autosize=1;" vertex="1" parent="8hChCW3FszteUkoNeu8G-24">
          <mxGeometry x="90" y="50" width="140" height="20" as="geometry"/>
        </mxCell>
        <mxCell id="8hChCW3FszteUkoNeu8G-5" value="$$\vec{e}_X = \boldsymbol{e}_X^W = (1,0,0)$$" style="text;html=1;align=center;verticalAlign=middle;resizable=0;points=[];autosize=1;rotation=0;" vertex="1" parent="8hChCW3FszteUkoNeu8G-24">
          <mxGeometry x="55" y="100" width="270" height="20" as="geometry"/>
        </mxCell>
        <mxCell id="8hChCW3FszteUkoNeu8G-4" value="$$\vec{e}_Y = \boldsymbol{e}_Y^W = (0,1,0)$$" style="text;html=1;align=center;verticalAlign=middle;resizable=0;points=[];autosize=1;rotation=0;" vertex="1" parent="8hChCW3FszteUkoNeu8G-30">
          <mxGeometry y="73.5" width="270" height="20" as="geometry"/>
        </mxCell>
        <mxCell id="8hChCW3FszteUkoNeu8G-32" value="$$\boldsymbol{P}^W = {R^{WC}}^T \boldsymbol{P}^C + \boldsymbol{F}^W$$" style="text;html=1;align=left;verticalAlign=middle;resizable=0;points=[];autosize=1;" vertex="1" parent="0IS2U3QtcljcEeAQ51mi-1">
          <mxGeometry x="178.65999999999997" y="170" width="420" height="20" as="geometry"/>
        </mxCell>
        <mxCell id="8hChCW3FszteUkoNeu8G-34" value="座標系変換の関係" style="text;html=1;align=left;verticalAlign=middle;resizable=0;points=[];autosize=1;" vertex="1" parent="0IS2U3QtcljcEeAQ51mi-1">
          <mxGeometry x="355.9" y="170" width="110" height="20" as="geometry"/>
        </mxCell>
        <mxCell id="8hChCW3FszteUkoNeu8G-37" value="変換の関係" style="text;html=1;align=left;verticalAlign=middle;resizable=0;points=[];autosize=1;" vertex="1" parent="0IS2U3QtcljcEeAQ51mi-1">
          <mxGeometry x="320" y="650" width="80" height="20" as="geometry"/>
        </mxCell>
      </root>
    </mxGraphModel>
  </diagram>
  <diagram id="DPrh5EcJE---_pXr7yhz" name="SLAM Process">
    <mxGraphModel dx="1371" dy="358" grid="1" gridSize="10" guides="1" tooltips="1" connect="1" arrows="1" fold="1" page="1" pageScale="1" pageWidth="827" pageHeight="1169" math="1" shadow="0">
      <root>
        <mxCell id="KwsuU6XtCkrVDZlp-KHl-0"/>
        <mxCell id="KwsuU6XtCkrVDZlp-KHl-1" parent="KwsuU6XtCkrVDZlp-KHl-0"/>
        <mxCell id="7yz1Ov67Ck8_X91Pyg3R-0" value="V-SLAM" style="text;html=1;align=center;verticalAlign=middle;resizable=0;points=[];autosize=1;" vertex="1" parent="KwsuU6XtCkrVDZlp-KHl-1">
          <mxGeometry x="-430" y="120" width="60" height="20" as="geometry"/>
        </mxCell>
        <mxCell id="7yz1Ov67Ck8_X91Pyg3R-4" value="" style="edgeStyle=orthogonalEdgeStyle;rounded=0;orthogonalLoop=1;jettySize=auto;html=1;" edge="1" parent="KwsuU6XtCkrVDZlp-KHl-1" source="7yz1Ov67Ck8_X91Pyg3R-17" target="7yz1Ov67Ck8_X91Pyg3R-3">
          <mxGeometry relative="1" as="geometry"/>
        </mxCell>
        <mxCell id="7yz1Ov67Ck8_X91Pyg3R-1" value="画像" style="text;html=1;align=center;verticalAlign=middle;resizable=0;points=[];autosize=1;" vertex="1" parent="KwsuU6XtCkrVDZlp-KHl-1">
          <mxGeometry x="327" y="60" width="40" height="20" as="geometry"/>
        </mxCell>
        <mxCell id="7yz1Ov67Ck8_X91Pyg3R-6" value="" style="edgeStyle=orthogonalEdgeStyle;rounded=0;orthogonalLoop=1;jettySize=auto;html=1;" edge="1" parent="KwsuU6XtCkrVDZlp-KHl-1" source="7yz1Ov67Ck8_X91Pyg3R-3">
          <mxGeometry relative="1" as="geometry">
            <mxPoint x="347" y="188.9999999999999" as="targetPoint"/>
          </mxGeometry>
        </mxCell>
        <mxCell id="7yz1Ov67Ck8_X91Pyg3R-3" value="特徴点の検出＆トラッキング" style="text;html=1;align=center;verticalAlign=middle;resizable=0;points=[];autosize=1;" vertex="1" parent="KwsuU6XtCkrVDZlp-KHl-1">
          <mxGeometry x="262" y="140" width="170" height="20" as="geometry"/>
        </mxCell>
        <mxCell id="7yz1Ov67Ck8_X91Pyg3R-7" value="フレームID&lt;br&gt;[特徴点位置]&lt;br&gt;[特徴点ID]" style="rounded=0;whiteSpace=wrap;html=1;align=center;" vertex="1" parent="KwsuU6XtCkrVDZlp-KHl-1">
          <mxGeometry x="275" y="199" width="104" height="50" as="geometry"/>
        </mxCell>
        <mxCell id="7yz1Ov67Ck8_X91Pyg3R-8" value="フレームID&lt;br&gt;[特徴点位置]&lt;br&gt;[特徴点ID]" style="rounded=0;whiteSpace=wrap;html=1;align=center;" vertex="1" parent="KwsuU6XtCkrVDZlp-KHl-1">
          <mxGeometry x="285" y="209" width="104" height="50" as="geometry"/>
        </mxCell>
        <mxCell id="7yz1Ov67Ck8_X91Pyg3R-9" value="フレームID&lt;br&gt;[特徴点位置]&lt;br&gt;[特徴点ID]" style="rounded=0;whiteSpace=wrap;html=1;align=center;" vertex="1" parent="KwsuU6XtCkrVDZlp-KHl-1">
          <mxGeometry x="295" y="219" width="104" height="50" as="geometry"/>
        </mxCell>
        <mxCell id="7yz1Ov67Ck8_X91Pyg3R-10" value="フレームID&lt;br&gt;[特徴点位置]&lt;br&gt;[特徴点ID]" style="rounded=0;whiteSpace=wrap;html=1;align=center;" vertex="1" parent="KwsuU6XtCkrVDZlp-KHl-1">
          <mxGeometry x="305" y="229" width="104" height="50" as="geometry"/>
        </mxCell>
        <mxCell id="7yz1Ov67Ck8_X91Pyg3R-11" value="フレームID&lt;br&gt;[特徴点位置]&lt;br&gt;[特徴点ID]" style="rounded=0;whiteSpace=wrap;html=1;align=center;" vertex="1" parent="KwsuU6XtCkrVDZlp-KHl-1">
          <mxGeometry x="315" y="239" width="104" height="50" as="geometry"/>
        </mxCell>
        <mxCell id="7yz1Ov67Ck8_X91Pyg3R-13" value="初期化" style="text;html=1;align=center;verticalAlign=middle;resizable=0;points=[];autosize=1;fillColor=#dae8fc;strokeColor=#6c8ebf;" vertex="1" parent="KwsuU6XtCkrVDZlp-KHl-1">
          <mxGeometry x="62" y="310" width="50" height="20" as="geometry"/>
        </mxCell>
        <mxCell id="7yz1Ov67Ck8_X91Pyg3R-14" value="" style="shape=flexArrow;endArrow=classic;html=1;width=10.344827586206897;endSize=5.089655172413793;" edge="1" parent="KwsuU6XtCkrVDZlp-KHl-1">
          <mxGeometry width="50" height="50" relative="1" as="geometry">
            <mxPoint x="351.71000000000004" y="300" as="sourcePoint"/>
            <mxPoint x="351.71000000000004" y="340" as="targetPoint"/>
          </mxGeometry>
        </mxCell>
        <mxCell id="7yz1Ov67Ck8_X91Pyg3R-36" style="edgeStyle=orthogonalEdgeStyle;rounded=0;orthogonalLoop=1;jettySize=auto;html=1;" edge="1" parent="KwsuU6XtCkrVDZlp-KHl-1" source="7yz1Ov67Ck8_X91Pyg3R-15" target="7yz1Ov67Ck8_X91Pyg3R-16">
          <mxGeometry relative="1" as="geometry"/>
        </mxCell>
        <mxCell id="7yz1Ov67Ck8_X91Pyg3R-15" value="２枚分のフレームを持ってくる&lt;br&gt;フレームの名前：&lt;br&gt;F_ref : 初期化に使うリファレンスフレーム&lt;br&gt;F_current : 最新のフレーム" style="text;html=1;align=left;verticalAlign=middle;resizable=0;points=[];autosize=1;" vertex="1" parent="KwsuU6XtCkrVDZlp-KHl-1">
          <mxGeometry x="232" y="360" width="240" height="60" as="geometry"/>
        </mxCell>
        <mxCell id="7yz1Ov67Ck8_X91Pyg3R-20" value="" style="edgeStyle=orthogonalEdgeStyle;rounded=0;orthogonalLoop=1;jettySize=auto;html=1;" edge="1" parent="KwsuU6XtCkrVDZlp-KHl-1" source="7yz1Ov67Ck8_X91Pyg3R-16" target="7yz1Ov67Ck8_X91Pyg3R-19">
          <mxGeometry relative="1" as="geometry"/>
        </mxCell>
        <mxCell id="7yz1Ov67Ck8_X91Pyg3R-16" value="特徴点の対応関係からEssential行列を推定" style="text;html=1;align=center;verticalAlign=middle;resizable=0;points=[];autosize=1;" vertex="1" parent="KwsuU6XtCkrVDZlp-KHl-1">
          <mxGeometry x="232" y="440" width="240" height="20" as="geometry"/>
        </mxCell>
        <mxCell id="7yz1Ov67Ck8_X91Pyg3R-34" style="edgeStyle=orthogonalEdgeStyle;rounded=0;orthogonalLoop=1;jettySize=auto;html=1;" edge="1" parent="KwsuU6XtCkrVDZlp-KHl-1" source="7yz1Ov67Ck8_X91Pyg3R-19" target="7yz1Ov67Ck8_X91Pyg3R-31">
          <mxGeometry relative="1" as="geometry"/>
        </mxCell>
        <mxCell id="7yz1Ov67Ck8_X91Pyg3R-19" value="Essential行列を分解して回転行列と平行移動成分を取り出す" style="text;html=1;align=center;verticalAlign=middle;resizable=0;points=[];autosize=1;" vertex="1" parent="KwsuU6XtCkrVDZlp-KHl-1">
          <mxGeometry x="182" y="480" width="340" height="20" as="geometry"/>
        </mxCell>
        <mxCell id="7yz1Ov67Ck8_X91Pyg3R-41" style="edgeStyle=orthogonalEdgeStyle;rounded=0;orthogonalLoop=1;jettySize=auto;html=1;" edge="1" parent="KwsuU6XtCkrVDZlp-KHl-1" source="7yz1Ov67Ck8_X91Pyg3R-21">
          <mxGeometry relative="1" as="geometry">
            <mxPoint x="352" y="650" as="targetPoint"/>
          </mxGeometry>
        </mxCell>
        <mxCell id="7yz1Ov67Ck8_X91Pyg3R-21" value="カメラの回転と移動量がわかったので特徴点位置を三角測量する" style="text;html=1;align=center;verticalAlign=middle;resizable=0;points=[];autosize=1;" vertex="1" parent="KwsuU6XtCkrVDZlp-KHl-1">
          <mxGeometry x="172" y="590" width="360" height="20" as="geometry"/>
        </mxCell>
        <mxCell id="7yz1Ov67Ck8_X91Pyg3R-17" value="歪など画像の補正" style="text;html=1;align=center;verticalAlign=middle;resizable=0;points=[];autosize=1;" vertex="1" parent="KwsuU6XtCkrVDZlp-KHl-1">
          <mxGeometry x="292" y="100" width="110" height="20" as="geometry"/>
        </mxCell>
        <mxCell id="7yz1Ov67Ck8_X91Pyg3R-18" value="" style="edgeStyle=orthogonalEdgeStyle;rounded=0;orthogonalLoop=1;jettySize=auto;html=1;" edge="1" parent="KwsuU6XtCkrVDZlp-KHl-1" source="7yz1Ov67Ck8_X91Pyg3R-1" target="7yz1Ov67Ck8_X91Pyg3R-17">
          <mxGeometry relative="1" as="geometry">
            <mxPoint x="346.7241379310344" y="80" as="sourcePoint"/>
            <mxPoint x="346.7241379310344" y="129" as="targetPoint"/>
          </mxGeometry>
        </mxCell>
        <mxCell id="7yz1Ov67Ck8_X91Pyg3R-25" value="回転行列" style="text;html=1;align=center;verticalAlign=middle;resizable=0;points=[];autosize=1;" vertex="1" parent="KwsuU6XtCkrVDZlp-KHl-1">
          <mxGeometry x="262" y="660" width="60" height="20" as="geometry"/>
        </mxCell>
        <mxCell id="7yz1Ov67Ck8_X91Pyg3R-26" value="$$R^{ref\ to\ current}$$" style="text;html=1;align=center;verticalAlign=middle;resizable=0;points=[];autosize=1;" vertex="1" parent="KwsuU6XtCkrVDZlp-KHl-1">
          <mxGeometry x="404" y="660" width="140" height="20" as="geometry"/>
        </mxCell>
        <mxCell id="7yz1Ov67Ck8_X91Pyg3R-27" value="平行移動成分" style="text;html=1;align=center;verticalAlign=middle;resizable=0;points=[];autosize=1;" vertex="1" parent="KwsuU6XtCkrVDZlp-KHl-1">
          <mxGeometry x="247" y="680" width="90" height="20" as="geometry"/>
        </mxCell>
        <mxCell id="7yz1Ov67Ck8_X91Pyg3R-29" value="マッチングの取れた特徴点３次元位置&lt;br&gt;（Currentカメラ座標系）" style="text;html=1;align=center;verticalAlign=middle;resizable=0;points=[];autosize=1;" vertex="1" parent="KwsuU6XtCkrVDZlp-KHl-1">
          <mxGeometry x="182" y="700" width="220" height="30" as="geometry"/>
        </mxCell>
        <mxCell id="7yz1Ov67Ck8_X91Pyg3R-35" style="edgeStyle=orthogonalEdgeStyle;rounded=0;orthogonalLoop=1;jettySize=auto;html=1;" edge="1" parent="KwsuU6XtCkrVDZlp-KHl-1" source="7yz1Ov67Ck8_X91Pyg3R-31" target="7yz1Ov67Ck8_X91Pyg3R-21">
          <mxGeometry relative="1" as="geometry"/>
        </mxCell>
        <mxCell id="7yz1Ov67Ck8_X91Pyg3R-40" style="edgeStyle=orthogonalEdgeStyle;rounded=0;orthogonalLoop=1;jettySize=auto;html=1;entryX=0.999;entryY=0.607;entryDx=0;entryDy=0;entryPerimeter=0;" edge="1" parent="KwsuU6XtCkrVDZlp-KHl-1" source="7yz1Ov67Ck8_X91Pyg3R-31" target="7yz1Ov67Ck8_X91Pyg3R-15">
          <mxGeometry relative="1" as="geometry">
            <mxPoint x="547" y="390" as="targetPoint"/>
            <Array as="points">
              <mxPoint x="527" y="550"/>
              <mxPoint x="527" y="396"/>
            </Array>
          </mxGeometry>
        </mxCell>
        <mxCell id="7yz1Ov67Ck8_X91Pyg3R-31" value="特徴点のマッチング数をチェック&lt;br&gt;十分な対応点がない場合は次のフレームを使って初期化" style="text;html=1;align=center;verticalAlign=middle;resizable=0;points=[];autosize=1;" vertex="1" parent="KwsuU6XtCkrVDZlp-KHl-1">
          <mxGeometry x="197" y="530" width="310" height="30" as="geometry"/>
        </mxCell>
        <mxCell id="7yz1Ov67Ck8_X91Pyg3R-42" value="カメラ位置のトラッキング&lt;br&gt;特徴点位置の推定" style="text;html=1;align=center;verticalAlign=middle;resizable=0;points=[];autosize=1;fillColor=#dae8fc;strokeColor=#6c8ebf;" vertex="1" parent="KwsuU6XtCkrVDZlp-KHl-1">
          <mxGeometry x="850" y="100" width="160" height="30" as="geometry"/>
        </mxCell>
        <mxCell id="7yz1Ov67Ck8_X91Pyg3R-44" value="初期化に成功したら、そのときのCurrentカメラ位置を&lt;br&gt;World座標系の原点と同一フレームにする" style="text;html=1;align=left;verticalAlign=middle;resizable=0;points=[];autosize=1;" vertex="1" parent="KwsuU6XtCkrVDZlp-KHl-1">
          <mxGeometry x="197" y="750" width="310" height="30" as="geometry"/>
        </mxCell>
        <mxCell id="7yz1Ov67Ck8_X91Pyg3R-46" value="Input" style="text;html=1;align=center;verticalAlign=middle;resizable=0;points=[];autosize=1;" vertex="1" parent="KwsuU6XtCkrVDZlp-KHl-1">
          <mxGeometry x="50" y="70" width="40" height="20" as="geometry"/>
        </mxCell>
        <mxCell id="7yz1Ov67Ck8_X91Pyg3R-47" value="Output" style="text;html=1;align=center;verticalAlign=middle;resizable=0;points=[];autosize=1;" vertex="1" parent="KwsuU6XtCkrVDZlp-KHl-1">
          <mxGeometry x="40" y="150" width="50" height="20" as="geometry"/>
        </mxCell>
        <mxCell id="7yz1Ov67Ck8_X91Pyg3R-48" value="" style="endArrow=none;dashed=1;html=1;" edge="1" parent="KwsuU6XtCkrVDZlp-KHl-1">
          <mxGeometry width="50" height="50" relative="1" as="geometry">
            <mxPoint x="45" y="170" as="sourcePoint"/>
            <mxPoint x="712" y="170" as="targetPoint"/>
          </mxGeometry>
        </mxCell>
        <mxCell id="7yz1Ov67Ck8_X91Pyg3R-49" value="" style="endArrow=none;dashed=1;html=1;" edge="1" parent="KwsuU6XtCkrVDZlp-KHl-1">
          <mxGeometry width="50" height="50" relative="1" as="geometry">
            <mxPoint x="50" y="90" as="sourcePoint"/>
            <mxPoint x="717" y="90" as="targetPoint"/>
          </mxGeometry>
        </mxCell>
        <mxCell id="7yz1Ov67Ck8_X91Pyg3R-50" value="Output" style="text;html=1;align=center;verticalAlign=middle;resizable=0;points=[];autosize=1;" vertex="1" parent="KwsuU6XtCkrVDZlp-KHl-1">
          <mxGeometry x="40" y="610" width="50" height="20" as="geometry"/>
        </mxCell>
        <mxCell id="7yz1Ov67Ck8_X91Pyg3R-51" value="" style="endArrow=none;dashed=1;html=1;" edge="1" parent="KwsuU6XtCkrVDZlp-KHl-1">
          <mxGeometry width="50" height="50" relative="1" as="geometry">
            <mxPoint x="45" y="630" as="sourcePoint"/>
            <mxPoint x="712" y="630" as="targetPoint"/>
          </mxGeometry>
        </mxCell>
        <mxCell id="7yz1Ov67Ck8_X91Pyg3R-52" value="Input" style="text;html=1;align=center;verticalAlign=middle;resizable=0;points=[];autosize=1;" vertex="1" parent="KwsuU6XtCkrVDZlp-KHl-1">
          <mxGeometry x="880" y="210" width="40" height="20" as="geometry"/>
        </mxCell>
        <mxCell id="7yz1Ov67Ck8_X91Pyg3R-53" value="" style="endArrow=none;dashed=1;html=1;" edge="1" parent="KwsuU6XtCkrVDZlp-KHl-1">
          <mxGeometry width="50" height="50" relative="1" as="geometry">
            <mxPoint x="883" y="230" as="sourcePoint"/>
            <mxPoint x="1550" y="230" as="targetPoint"/>
          </mxGeometry>
        </mxCell>
        <mxCell id="7yz1Ov67Ck8_X91Pyg3R-54" value="対応点数が不十分の場合" style="text;html=1;align=center;verticalAlign=middle;resizable=0;points=[];autosize=1;" vertex="1" parent="KwsuU6XtCkrVDZlp-KHl-1">
          <mxGeometry x="532" y="535" width="150" height="20" as="geometry"/>
        </mxCell>
        <mxCell id="7yz1Ov67Ck8_X91Pyg3R-55" value="前回のカメラPose（世界座標系）" style="text;html=1;align=center;verticalAlign=middle;resizable=0;points=[];autosize=1;" vertex="1" parent="KwsuU6XtCkrVDZlp-KHl-1">
          <mxGeometry x="1090" y="110" width="200" height="20" as="geometry"/>
        </mxCell>
        <mxCell id="7yz1Ov67Ck8_X91Pyg3R-56" value="前回フレームの特徴点３次元位置（世界座標系）" style="text;html=1;align=center;verticalAlign=middle;resizable=0;points=[];autosize=1;" vertex="1" parent="KwsuU6XtCkrVDZlp-KHl-1">
          <mxGeometry x="1090" y="130" width="280" height="20" as="geometry"/>
        </mxCell>
        <mxCell id="7yz1Ov67Ck8_X91Pyg3R-57" value="$$R^{W\ to\ C_{i-1}}$$" style="text;html=1;align=center;verticalAlign=middle;resizable=0;points=[];autosize=1;" vertex="1" parent="KwsuU6XtCkrVDZlp-KHl-1">
          <mxGeometry x="1360" y="110" width="140" height="20" as="geometry"/>
        </mxCell>
        <mxCell id="7yz1Ov67Ck8_X91Pyg3R-59" value="$$\boldsymbol{t}^{W\ to\ C_{i-1}}$$" style="text;html=1;align=center;verticalAlign=middle;resizable=0;points=[];autosize=1;" vertex="1" parent="KwsuU6XtCkrVDZlp-KHl-1">
          <mxGeometry x="1395" y="110" width="200" height="20" as="geometry"/>
        </mxCell>
        <mxCell id="phfHnVdt7umejEUPn07p-0" value="&lt;span style=&quot;text-align: left&quot;&gt;$$\boldsymbol{t}^{ref\ to\ current}$$&lt;/span&gt;" style="text;html=1;align=center;verticalAlign=middle;resizable=0;points=[];autosize=1;" vertex="1" parent="KwsuU6XtCkrVDZlp-KHl-1">
          <mxGeometry x="367" y="680" width="210" height="20" as="geometry"/>
        </mxCell>
        <mxCell id="phfHnVdt7umejEUPn07p-1" value="&lt;span style=&quot;text-align: left&quot;&gt;$$\left[\boldsymbol{p}_i^{current}\right]$$&lt;/span&gt;" style="text;html=1;align=center;verticalAlign=middle;resizable=0;points=[];autosize=1;" vertex="1" parent="KwsuU6XtCkrVDZlp-KHl-1">
          <mxGeometry x="347" y="700" width="230" height="20" as="geometry"/>
        </mxCell>
        <mxCell id="phfHnVdt7umejEUPn07p-2" value="&lt;span style=&quot;text-align: left&quot;&gt;$$\left[\boldsymbol{p}_{i-1}^{W}\right]$$&lt;/span&gt;" style="text;html=1;align=center;verticalAlign=middle;resizable=0;points=[];autosize=1;" vertex="1" parent="KwsuU6XtCkrVDZlp-KHl-1">
          <mxGeometry x="1300" y="130" width="230" height="20" as="geometry"/>
        </mxCell>
        <mxCell id="phfHnVdt7umejEUPn07p-3" value="入力に利用する特徴点位置はなにを利用するべきか？&lt;br&gt;全フレーム分の特徴点を利用するべき？&lt;br&gt;このあたりの工夫はOrbSLAMなどのスパニングツリーなどあるらしいのでおいおい調べる？" style="text;html=1;align=left;verticalAlign=middle;resizable=0;points=[];autosize=1;" vertex="1" parent="KwsuU6XtCkrVDZlp-KHl-1">
          <mxGeometry x="890" y="40" width="510" height="50" as="geometry"/>
        </mxCell>
        <mxCell id="phfHnVdt7umejEUPn07p-4" value="" style="endArrow=classic;html=1;exitX=0.268;exitY=0.986;exitDx=0;exitDy=0;exitPerimeter=0;" edge="1" parent="KwsuU6XtCkrVDZlp-KHl-1" source="phfHnVdt7umejEUPn07p-3">
          <mxGeometry width="50" height="50" relative="1" as="geometry">
            <mxPoint x="1040" y="190" as="sourcePoint"/>
            <mxPoint x="1090" y="140" as="targetPoint"/>
          </mxGeometry>
        </mxCell>
        <mxCell id="phfHnVdt7umejEUPn07p-5" value="特徴点抽出＆トラッキング" style="text;html=1;align=center;verticalAlign=middle;resizable=0;points=[];autosize=1;fillColor=#dae8fc;strokeColor=#6c8ebf;" vertex="1" parent="KwsuU6XtCkrVDZlp-KHl-1">
          <mxGeometry x="62" y="40" width="160" height="20" as="geometry"/>
        </mxCell>
        <mxCell id="phfHnVdt7umejEUPn07p-6" value="" style="endArrow=classic;html=1;" edge="1" parent="KwsuU6XtCkrVDZlp-KHl-1">
          <mxGeometry width="50" height="50" relative="1" as="geometry">
            <mxPoint x="1189.66" y="200" as="sourcePoint"/>
            <mxPoint x="1189.66" y="260" as="targetPoint"/>
          </mxGeometry>
        </mxCell>
        <mxCell id="phfHnVdt7umejEUPn07p-9" value="今回フレームの特徴点＆追跡結果&lt;br&gt;特徴点の画像中位置（デバイス座標系）と特徴点ID" style="text;html=1;align=center;verticalAlign=middle;resizable=0;points=[];autosize=1;" vertex="1" parent="KwsuU6XtCkrVDZlp-KHl-1">
          <mxGeometry x="1070" y="160" width="290" height="30" as="geometry"/>
        </mxCell>
        <mxCell id="phfHnVdt7umejEUPn07p-10" value="&lt;span style=&quot;text-align: left&quot;&gt;$$\left[id : \boldsymbol{p}_{i}^{D}\right]$$&lt;/span&gt;" style="text;html=1;align=center;verticalAlign=middle;resizable=0;points=[];autosize=1;" vertex="1" parent="KwsuU6XtCkrVDZlp-KHl-1">
          <mxGeometry x="1308" y="165" width="230" height="20" as="geometry"/>
        </mxCell>
        <mxCell id="phfHnVdt7umejEUPn07p-11" value="&lt;div&gt;&lt;span&gt;・今回のカメラPoseの仮定&lt;/span&gt;&lt;/div&gt;&lt;div&gt;&lt;span&gt;とりあえず、前回カメラPoseを今回カメラPoseとして仮定する&lt;/span&gt;&lt;/div&gt;&lt;div&gt;&lt;span&gt;この結果はP3Pの計算の初期値に利用される。&lt;/span&gt;&lt;/div&gt;&lt;div&gt;&lt;span&gt;BAの初期値はP3Pによるカメラ位置とそこから三角測量で求めた特徴点位置を利用する&lt;/span&gt;&lt;/div&gt;&lt;div&gt;&lt;span&gt;この部分はカメラ運動を推定して位置を予測するなど(OrbSLAM?)いろいろあるので要調査&lt;/span&gt;&lt;/div&gt;" style="text;html=1;align=left;verticalAlign=middle;resizable=0;points=[];autosize=1;" vertex="1" parent="KwsuU6XtCkrVDZlp-KHl-1">
          <mxGeometry x="965" y="250" width="500" height="80" as="geometry"/>
        </mxCell>
        <mxCell id="phfHnVdt7umejEUPn07p-12" value="$$R_{est}^{W\ to\ C_i} = R^{W\ to\ C_{i-1}}$$" style="text;html=1;align=center;verticalAlign=middle;resizable=0;points=[];autosize=1;" vertex="1" parent="KwsuU6XtCkrVDZlp-KHl-1">
          <mxGeometry x="1059.9999999999995" y="330" width="260" height="20" as="geometry"/>
        </mxCell>
        <mxCell id="phfHnVdt7umejEUPn07p-13" value="$$\boldsymbol{t}_{est}^{W\ to\ C_i} = \boldsymbol{t}^{W\ to\ C_{i-1}}$$" style="text;html=1;align=center;verticalAlign=middle;resizable=0;points=[];autosize=1;" vertex="1" parent="KwsuU6XtCkrVDZlp-KHl-1">
          <mxGeometry x="994.9999999999997" y="359" width="390" height="20" as="geometry"/>
        </mxCell>
        <mxCell id="phfHnVdt7umejEUPn07p-14" value="" style="endArrow=classic;html=1;" edge="1" parent="KwsuU6XtCkrVDZlp-KHl-1">
          <mxGeometry width="50" height="50" relative="1" as="geometry">
            <mxPoint x="1189.6599999999999" y="398.9999999999999" as="sourcePoint"/>
            <mxPoint x="1189.6599999999999" y="458.9999999999999" as="targetPoint"/>
          </mxGeometry>
        </mxCell>
        <mxCell id="phfHnVdt7umejEUPn07p-15" value="&lt;div&gt;&lt;span&gt;・BAに利用する初期値の計算&lt;/span&gt;&lt;/div&gt;&lt;div&gt;P3Pを利用して今回のカメラ位置を推定&lt;/div&gt;&lt;div&gt;推定したカメラ位置から、今回特徴点の３次元位置を三角測量する&lt;/div&gt;" style="text;html=1;align=left;verticalAlign=middle;resizable=0;points=[];autosize=1;" vertex="1" parent="KwsuU6XtCkrVDZlp-KHl-1">
          <mxGeometry x="980" y="460" width="380" height="50" as="geometry"/>
        </mxCell>
        <mxCell id="phfHnVdt7umejEUPn07p-17" value="$$R_{initial}^{W\ to\ C_i}, \boldsymbol{t}_{initial}^{W\ to\ C_i}= pnp\left( R_{est}^{W\ to\ C_i}, \boldsymbol{t}_{est}^{W\ to\ C_i}, \left[ \boldsymbol{p}^{D}... \right] \right)$$" style="text;html=1;align=center;verticalAlign=middle;resizable=0;points=[];autosize=1;" vertex="1" parent="KwsuU6XtCkrVDZlp-KHl-1">
          <mxGeometry x="749.9999999999995" y="515" width="900" height="20" as="geometry"/>
        </mxCell>
        <mxCell id="phfHnVdt7umejEUPn07p-18" value="$$\left[ \boldsymbol{p}_{initial}^{W}... \right] = triangulation\left(pose\ and\ features\ from\ i-1\ and\ est\ i \right)$$" style="text;html=1;align=center;verticalAlign=middle;resizable=0;points=[];autosize=1;" vertex="1" parent="KwsuU6XtCkrVDZlp-KHl-1">
          <mxGeometry x="905" y="540" width="610" height="20" as="geometry"/>
        </mxCell>
        <mxCell id="phfHnVdt7umejEUPn07p-19" value="" style="endArrow=classic;html=1;" edge="1" parent="KwsuU6XtCkrVDZlp-KHl-1">
          <mxGeometry width="50" height="50" relative="1" as="geometry">
            <mxPoint x="1189.5799999999997" y="579.9999999999999" as="sourcePoint"/>
            <mxPoint x="1189.5799999999997" y="639.9999999999999" as="targetPoint"/>
          </mxGeometry>
        </mxCell>
        <mxCell id="phfHnVdt7umejEUPn07p-21" value="・BAの計算" style="text;html=1;align=left;verticalAlign=middle;resizable=0;points=[];autosize=1;" vertex="1" parent="KwsuU6XtCkrVDZlp-KHl-1">
          <mxGeometry x="980" y="650" width="80" height="20" as="geometry"/>
        </mxCell>
        <mxCell id="phfHnVdt7umejEUPn07p-22" value="こっから先はよくわからない・・・" style="text;html=1;strokeColor=none;fillColor=none;align=center;verticalAlign=middle;whiteSpace=wrap;rounded=0;" vertex="1" parent="KwsuU6XtCkrVDZlp-KHl-1">
          <mxGeometry x="1040" y="720" width="320" height="20" as="geometry"/>
        </mxCell>
        <mxCell id="j_z1cge8MNPJE1UNdcW2-0" value="ここの$$p^W$$はどのフレーム間で求める？" style="text;html=1;align=center;verticalAlign=middle;resizable=0;points=[];autosize=1;" vertex="1" parent="KwsuU6XtCkrVDZlp-KHl-1">
          <mxGeometry x="750" y="580" width="260" height="20" as="geometry"/>
        </mxCell>
        <mxCell id="j_z1cge8MNPJE1UNdcW2-3" value="" style="endArrow=classic;html=1;entryX=0.139;entryY=0.55;entryDx=0;entryDy=0;entryPerimeter=0;exitX=0.565;exitY=0.2;exitDx=0;exitDy=0;exitPerimeter=0;" edge="1" parent="KwsuU6XtCkrVDZlp-KHl-1" source="j_z1cge8MNPJE1UNdcW2-0" target="phfHnVdt7umejEUPn07p-18">
          <mxGeometry width="50" height="50" relative="1" as="geometry">
            <mxPoint x="880" y="570" as="sourcePoint"/>
            <mxPoint x="930" y="520" as="targetPoint"/>
          </mxGeometry>
        </mxCell>
      </root>
    </mxGraphModel>
  </diagram>
</mxfile>
